<mxfile host="app.diagrams.net" modified="2022-08-26T12:02:42.381Z" agent="5.0 (Windows NT 10.0; Win64; x64) AppleWebKit/537.36 (KHTML, like Gecko) Chrome/104.0.0.0 Safari/537.36" etag="NFulEum8e2obeCj2ROnN" version="20.2.6" type="github">
  <diagram id="DWUqB2PM9tQu7tQXnMEF" name="Page-1">
    <mxGraphModel dx="1038" dy="1647" grid="1" gridSize="10" guides="1" tooltips="1" connect="1" arrows="1" fold="1" page="1" pageScale="1" pageWidth="850" pageHeight="1100" math="0" shadow="0">
      <root>
        <mxCell id="0" />
        <mxCell id="1" parent="0" />
        <mxCell id="Bg5k5mws3xVHbePD2vZb-10" style="edgeStyle=orthogonalEdgeStyle;curved=1;orthogonalLoop=1;jettySize=auto;html=1;" edge="1" parent="1" source="Bg5k5mws3xVHbePD2vZb-2" target="Bg5k5mws3xVHbePD2vZb-7">
          <mxGeometry relative="1" as="geometry" />
        </mxCell>
        <mxCell id="Bg5k5mws3xVHbePD2vZb-2" value="&lt;b&gt;Tablet&lt;/b&gt;" style="points=[[0.015,0.14,0],[0.5,0,0],[0.985,0.14,0],[1,0.57,0],[0.99,0.98,0],[0.5,1,0],[0.01,0.98,0],[0,0.57,0]];verticalLabelPosition=bottom;sketch=0;html=1;verticalAlign=top;aspect=fixed;align=center;pointerEvents=1;shape=mxgraph.cisco19.tablet;fillColor=#005073;strokeColor=none;" vertex="1" parent="1">
          <mxGeometry x="86.06" y="280" width="66" height="52.8" as="geometry" />
        </mxCell>
        <mxCell id="Bg5k5mws3xVHbePD2vZb-11" style="edgeStyle=orthogonalEdgeStyle;curved=1;orthogonalLoop=1;jettySize=auto;html=1;entryX=0;entryY=0.5;entryDx=0;entryDy=0;" edge="1" parent="1" source="Bg5k5mws3xVHbePD2vZb-4" target="Bg5k5mws3xVHbePD2vZb-7">
          <mxGeometry relative="1" as="geometry" />
        </mxCell>
        <mxCell id="Bg5k5mws3xVHbePD2vZb-4" value="&lt;b&gt;Mobile&lt;/b&gt;" style="verticalLabelPosition=bottom;verticalAlign=top;html=1;shadow=0;dashed=0;strokeWidth=1;shape=mxgraph.android.phone2;strokeColor=#6c8ebf;fillColor=#dae8fc;gradientColor=default;" vertex="1" parent="1">
          <mxGeometry x="94.07" y="410" width="50" height="90" as="geometry" />
        </mxCell>
        <mxCell id="Bg5k5mws3xVHbePD2vZb-8" style="edgeStyle=orthogonalEdgeStyle;orthogonalLoop=1;jettySize=auto;html=1;curved=1;entryX=0;entryY=0.5;entryDx=0;entryDy=0;" edge="1" parent="1" source="Bg5k5mws3xVHbePD2vZb-5" target="Bg5k5mws3xVHbePD2vZb-7">
          <mxGeometry relative="1" as="geometry" />
        </mxCell>
        <mxCell id="Bg5k5mws3xVHbePD2vZb-5" value="&lt;b&gt;Command Line&lt;br&gt;cli&lt;/b&gt;" style="shape=image;html=1;verticalAlign=top;verticalLabelPosition=bottom;labelBackgroundColor=#ffffff;imageAspect=0;aspect=fixed;image=https://cdn4.iconfinder.com/data/icons/icocentre-free-icons/170/f-command_256-128.png;gradientColor=default;" vertex="1" parent="1">
          <mxGeometry x="84.06" y="130" width="68" height="68" as="geometry" />
        </mxCell>
        <mxCell id="Bg5k5mws3xVHbePD2vZb-9" style="edgeStyle=orthogonalEdgeStyle;curved=1;orthogonalLoop=1;jettySize=auto;html=1;entryX=0;entryY=0.5;entryDx=0;entryDy=0;startArrow=none;exitX=0.75;exitY=1;exitDx=0;exitDy=0;" edge="1" parent="1" source="Bg5k5mws3xVHbePD2vZb-12" target="Bg5k5mws3xVHbePD2vZb-7">
          <mxGeometry relative="1" as="geometry">
            <Array as="points">
              <mxPoint x="350" y="130" />
              <mxPoint x="350" y="350" />
            </Array>
          </mxGeometry>
        </mxCell>
        <mxCell id="Bg5k5mws3xVHbePD2vZb-6" value="Web Browser&#xa;Client" style="shape=image;verticalLabelPosition=bottom;labelBackgroundColor=default;verticalAlign=top;aspect=fixed;imageAspect=0;image=data:image/jpeg,/9j/4AAQSkZJRgABAQAAAQABAAD/2wCEAAkGBxMSEBUSEhIWFhUXGBoXGBcVFxgaGBgaGBcXFx8XFyAYHSggGholGxYXITEhJSkrLi4uFx8zODMsNygtLisBCgoKDg0OGxAQGzcmICIvNS0wLy8yLS0uNS8tLS0tLS8tLS0tLS0tMjctLS0tLS0vLS0tLS0tLS0tLS0tLS0tLf/AABEIAHQBtAMBEQACEQEDEQH/xAAbAAEAAgMBAQAAAAAAAAAAAAAABQYDBAcCAf/EAEYQAAIBAgMEBgYHBQYGAwAAAAECAwARBBIhBQYxURMiQWFxgTJSkaGx0QcUI0JicpIWU1TB4TNzgqKy8BUXNEPC8SRjs//EABsBAQACAwEBAAAAAAAAAAAAAAAEBQIDBgEH/8QANhEAAgEDAAYHBwUBAQEBAAAAAAECAwQRBRIhMUFRE2FxkaGx0RQiMlKBwfAGFTNC4fEjUyT/2gAMAwEAAhEDEQA/AO1UAoBQCgFAKAUAoBQCgFAKAUAoBQCgFAKAUAoBQCgFAKAUAoBQCgFAKAUAoBQCgFAKAUAoBQCgFAKAUAoBQCgFAKAUAoBQCgFAKAUAoBQCgFAKAUAoBQCgFAKAUAoBQCgFAKAUAoBQCgFAKAUAoBQCgFAKAUAoBQCgFAKAUAoBQCgFAKAUAoBQCgFAKAUAoBQCgFAKAUAoBQCgFAKAUAoBQCgPEsqqLsQBzJsPfXqTbwjGUoxWZPBHSbwYYG3TKfC5+AqQrOs/6kOWk7WP919NvkeodvYZzYSrfvuPiK8laVorLiew0jbTeFNfXZ5klUcmigFAKA+MbC50HfQJZ3ETi95cNGbGTMfwAt7xpWmVxTXEnU9HXE1lRx27DSbfPD30WQ+Q+dYe1wN60PX5r8+hsQ72YVjbOy/mU2916yVzTfE1S0XcxWcZ7GS+HxKSDMjqw5qQfhW5ST2ohTpzg8SWDLXpgKAUAoBQCgIXaG9eEhJDTAsPupdz55dBUiFrVnuRonc0ob39yJf6RMKDokp78qj4tW5aPqc0aHf0+TM2H3/wjel0ifmS4/yk1jKxqrdtMo31J79hYMBtKGcXikVx+E6jxHEVGnTlB4ksEmFSM1mLybVYGYoBQCgFAKA0Nq7aw+GF8RPHEOzOwBPgOJ8qyjFy3I8ckt5Wp/pS2apsJXfvSNrf5rVuVtUfA0u4prifIfpS2cxsXkXvaM2/y3o7WpyPFdU+ZYtlbwYXE/2GIjkPqhhm/SdfdWqVOUd6N0ZxluZJ1gZCgFAKAUAoDy7AC54CgPAm4XBF+BP+9KAy0AoBQCgFAKAUAoBQCgFAKAi9pbfhh0LZm9VNT59g86k0bSpV2pYXNkC50lQobJPL5L82EDiN8nPoRKPzEn4WqdHRsf7S7ipqadm/ggl27fQ1Zd7cQRYZF7wpv7yRW1aPop52keWmrlrCwuxerZC4jEPIbuxY/iN//VS4QjBYisFbUqzqPM3l9ZY9g7Cw8y3Mxdu1F6tvG+p8ar7m7rU3hRx17/8AC6sNHW1ZZc9Z8ls/0l5d1MMRYBlPMMT8biosb+sntefoWE9DWrWEmvq/uY93DJFLJhZGzBQGQ/hOmndw08ayutSpCNaKxnY+0x0d0lGpK1m842p9RYKgFuKAiNu7eTDC3pSEaKPi3IVpq1lT7SbZ2M7h53R5+hQtp7WlnN5HNuxRoo8v5mq+dSU950lC1pUFiC+vE0a1kkUAoDLhsS8bZkYqw7QfjzrKMnF5RhUpxqLVmsouu7+9QkIjnsrnQMNFbuPI+6ptG51tkigvNGOmteltXLiWipZTigFAaO19qx4aIyStYcABxY8lHaa2UqUqktWJrqVI0460jlm8G9U+KJFzHF2RqeI/GfvfCrmhawpbd75lPWup1Nm5ciAqSRj7QCgPcEzIwdGKsODKSCPZXkoqSwz1NxeUdC3V34zkQ4ogMdFl4Ank/I9/DwqrubLV96n3Fnb3ufdqd5eqrixFAYMdilijeR/RQEny7PPhWFSapxcnwNlKm6k1CO9mrsraqy4VcQxVRlJck9Vct73J7BasLar01NT5my7odBVcORyXfr6XHctDs45EGhxBHWb+6B9FfxHU9luNWVO34yIE6uNiOfbM2biMY7OqvK3F5GJNu93c2Hma3yq06S954/ORo6OpU+FZJDBYQBivVa33l1B8D2iplLas4Kq4lqveZcdhLWNqzlE006pq4OXo3FokkN9AwIN/wspDKfOoF3STg3ruOOK9GmvAtLSUpSUUs5Oy7pb1N0SpKkiNwCzOX/S51Yfmua42tpGvb1GtZVI80sP649DqY6ObhrNNPit+PVFwwO0klNgbN6p4+I5irK0vqVyvd2Pk95DrW06W17uZuVNI4oBQCgMWJjLKQOOhF+FwQde7SgIXG7ywq4jdguvWJIOXLr2cb2tpQGRd7sETb6wo8QwHtIoCTwmOilF4pEcfhYH4UBsUAoBQCgFAKAUAoBQFM3i3lLExQGyjRnHFu5eS9/b8be1sklr1Ft5epzOkdKuTdOi8Li+fZ1dfHhs31gj/AH41ZFHjAr0CgFAeopCrBlJBHAjQisZRUlhnsZShJSi8NF33b3g6b7OWwk7D2P8AJu6qa7s+j9+G7yOp0bpPp/8AzqfF5/7+I3YxmxrEfciVSe9mJt7B760vZbpc35IlRWteSfyxS7239iUqMTiK3i2v9WizCxdtEB4d5PcPlWmtV6OPWSrK3VesoN449ezkc1mlZ2LMbsTck9pNVjbbyzroxUUox3I8V4ZCgFAKAUAoC87nbcMg6CQ9YDqE8WA7D3j4eFT7atn3Wc7pOyUH0sFse/qLTUspzxLIFUsxsACST2Aak16ll4R43hZZxrefbjYucubhBpGvJeZ7zxP9KvregqUMceJRXFZ1ZZ4cDT2bsubENlhjZ+ZA0HiToPM1sqVYU1mTwYQpzqP3VktOC+jmZheWVI+5QXPnwHvNQp6QgvhWfAlx0fN/E8eJJD6N47f9Q9+eVbez+tav3GXym79vj8zITbW4k8Kl42EyjU5QQ4HPLrfyN+6pFK+hN4ls8iPVspwWY7fMqlTSEKA6b9Hm3zNGcPIbyRi6k8WThbvK6DwI76qL2hqPXjufmW9lX11qS3ryLlUAnFU+kzEFMCQvF5EX4t/41Dv3/wCOCz0RHNxnkmcz+rvLB9XmmkWBnDtFHYZiB94ngOBtw0FVlrpF22dVZLi+0fG6w3saPrbt7OK5RBID63Stf5e6pP77WIP7FT5mTePEqmGTCw2jRuIXTqrbTvuSL87VO0KvaK0qlR5a+/p9yt083a0Iwpx2N7eXZ9fsROBw2VLLa/M11sY4Ww4SrPLyz2MG7IQ5t1rjgdO7lXuq8bTDpIqXukVtTBAKStya1zjs2EyhVbe009kb0z4ZrBs8fbG+oPhfhVDfaKoXO3GJc0dNZ6SrUcJ+9Hk/s+Hl1HT9kbcWdFmiJVlPA+kh5GuOr2tayrastj3p/c6i3q0rmnrQ2xex+jOhbH2wJmy9uRXH+ll8mHvroLW7VV46k/XxKa6s3RjrdbX3XgStTSCKAjtp7VWIhFBeU8EHxbkPjQFR3s2h0Sg43ElS2q4bDi8je+w8WuPhQHOMXtKSZmXD4ZUCqWOeR3kyjizBLAforJRb3I8bSMOC2njIdVMJHaJcMzqfNkJHlWXRT5HmvEn9l7zxPY4jB5GH/f2dISV7zE5DAdvVue6sHFreepp7i9bE3kJTOky4uC9iy6TIfVdTYhh6rWNeHpbcLiUkQOjBlPAj4Hke40BmoBQCgFAKAUBXd79olVEEd88nG3HLwsO8nTyNWFjRUm6kty8/8KbS91KEVQp/FLy/31K/Ng1wqgyANOwuqcVjHrP6zchw8anRqSrv3dkVx4vqXIqJ0IWcU6m2o9y4R63zfJbu3BEklj2kk+JJNS9kV1Fc3Kctu1ss+zN0SwDTsVv9xbX8ydB4CqytpFJ4prPWy9tdCOS1qzx1L7v87SUO6eGtazg885v79PdUb9wrdXcT3oa1xufeyD2vus8QLxEuo4i3XA8vSqbQv4zerPY/AqrzQ86Sc6T1ly4/6V6rApj0jkEEGxBuCOwjtrxpNYZlGTi8rei/7rTCSJpSbu7kv2WIAAHhlt7aobyOpNQ4JbPztOv0XUVWk6jfvN7fJeGCZqIWRzjeLG9NOx+6OqvgO3zNzVXWnrzZVe2Tp3KrQ/q9n51kKRatJ9It7iFxSjVhuaPlDeTmy923kTpZXWGLjmfiRzAJGneffUmjbTqFZd6UpW+Vva7l9TY+rbLGhxMpPMDTytHU9aJnjj4FLL9SbdmO5+ptxbsYeVc+HmMgHEBluPHTj42qovrK+orNLD6mmn9HnD8CXQ030nI1Tu/Hzf2j5Vyz01cp4cV3P1J/tk+o+f8AAI/Wf2j5V5+93HJdz9T32yfJGTD7GRHV1dwVII1HZ5VlHTtwnnC8fUwncynFxaWGXeKTMoYdovXd29eNelGrHdJZOcnFxk4sqf0lbT6PDCIGxlNj+RbE+0lR7atLCnrVNZ8PMgX1TVp6vPyITdPckygTYkFYzqsfBn727VXu4nuqRc3ur7tPfzI9vZ63vT3ciy7xbww4CMRRIpkt1Y10VR6zW4Du4n31EoW868taT2cyVXuIUFqxW3kedyY5ZYzjMQ5aSW4S/BIweCjgLkX8hS7cYvo4LYvMWqlJdJN7X5FnqISxQHJd/wDZggxZKCyyjOAOAN7Nbz186u7Kq508PhsKW8pqFTK47StVLIhvbCx5gxMUt7BWGb8p0b/KTWutDXpuJsoz1JqR3GudOhKN9IW0AxWAfdOY881rADwB99UOlLrWl0MeG/t5HQaHt8J1Xx2IphFVReHyh6R+08EZHjygki4AAudbcKl2ledJ5g9vA0XFKnVpuFRZi9+T7j9k4jDFGkaJVbjGxPTdxAW4t+a3nXa6Mvrm4f8A6QwuZ830zo6yt/4Ztvl+LcYpMVpxq61jnlTI7FTVg2SYRwRnRLcmw11Na8Il6zwT262EdZDMpujAo45Mtip+I865f9QVab/8pL3lhp809j/Oo6z9O0pqPSJ+68prk1tX51nQ93ZDHior6XsPJxp7yK5+xq4rxa54L29iqlvLHD7HRK6g5Uj9s48xIAgDSuckanhe18zfhUXJPIUBT9s7bXBRkqwed7ku/bzkfko0AHgBXqWdiBzyOB8Q5mlZusbkk2d+9j9xeSjstUmNNR37X4Ghzct24sOyEijuuSy5T6GhHM/i0voeNezbYjg94pgHbKQR2EaCxF+HZ4Uju2nkt5H4rCJIesBfsbgw8CNay4YMTVwrtDMGLlHNgswGp5JMODr489CpsRonBNZiboya2SL5sDbBRmcjKR/bxjUMv71OZHHvW99RppNhfFYEXGoOooD7QCgFAKAUBAbTyYZpMU9nlbqxg9gAsAPiTU6jrVkqMdkVtf55FTcuFrKVzPbN7I+n3bKRPMzsXY3ZjcmrqMVFKK3I5WpOVSTnJ5bLBuTgg8rSsL5AAv5mvr5Ae+oGkarjBQXEuNCW6nUlUf8AXd2v/PMu1Ux1AoBQHO96MEIsSwUWVgHA5XuCPaDV/ZVXUpLO9bDjdKUFRuGo7nt79/iiJqWV5ZNx8TaZo+xlv5r/AEJ9lV2kYZgpcvuXeg62rVlT5rP1Ratrz9HBI44hTbxOg95qjqy1YNnRVpatNvqOZ1UFEY5V7aHTfpy/6Oo7ab2S2rt5fXz7SU3U2as095P7OMZ3vwNuAPd2+Rrfb09eeDptI3PQUcre9nqzQ3i22+KlJvaNTZE7AOZ/Ea6+hQVKOOJ83uK8qss8OBE1uNBsYDGyQyCSNsrD2HuPMd1YzhGaxIzhOUHrROjNOuIgjxKC2bRhyYaH3g+6vmn6p0aqUuniuOH9n9u463R1z0sMfnWa1ceWQoCZ2O94yOR+Ovzruv01VcrVwf8AV+D2+eSsu44nnmaGN2D0+NWeaxjiQCNOb3JLN3DTTt8tephX1KTjHe9/YVs6GvVUpblu7Te29tMYbDvMdco6o5sdAPbWFGm6k1FGytUVODkziuKxDSu0jtmZjck9proIxUVhbiglJyeXvZbMBv8APFEkS4dLIoUdZtbC1+FQZ2ClJyct5NhfOMVFR3Gf/mRL/Dp+pvlWP7dH5jL9wl8viP8AmRL/AA6fqb5U/bo/MP3CXy+JA7zbxNjShaNUKAjqkm+a3PwqTb26o5w85I1e4dbGVjBC1II58YaV6Gd22VNngif1o0b2qDXNzWrNrrOig9aKfUcy3lwjR4li8meRusxHoqTchVHIAjU8Sa5O8goVHDjvfazsdHzU6OUsLcvoRsi2tzIv7ahp5JqeTGTWRkSWyUcNnRsrdhGtr/Gt1FuElIi3OrODgyh4rEP0rmRiz5iGYm5JBtX0uk46icVhY2HyytB68lJ7cmGWa4tWxvJrUMGDpudYZPdQ+hhXuTItm5c1o5lPA6eeh/8AGuR/U0M1aUl1/nidf+m8ulNcpJ96wy4Ty5WhccVC/wCUg1y9tJwm315L+EdZTjzz4l+2bOZIUduLKCfOuwt5udKMnxRzFxBQqyityZUtubS+3ke/o/Yp3DRpG8Scq+ANbjSc32ziDNiLNwADsPHVE8ApzEc2NSaMcLW7vuaajy9U2VkHZWwwbNmF9R4j40Z4bm1IckhsNDqPPs9tYxllHslhmq3VFzx7B86iSrOrLo6e7i/QmRoKjDpKu/gvUj8TZgQdb8amxSisLgQpScm2+JIbFx7BA3F4TlN/vKeF+4i4NRqsNWWzczdTlrLadQ3VxIaDKDcIer+RhmX2A28q1mwmqAUAoBQHl2ABJNgNSe4V6lnYjxtJZZzfbm0jiJi33Rog5Dn4njXQ21BUoY48Tir67dzVcuC2Ls/0j6kEMyQ4h09B2W/HKxF/GxrGUIy3rJnGpOHwya7G15GX6/N++k/W3zrHoqfyruRl7RW+eXe/UfX5v30n62+dOip/Ku5D2it88u9+o+vzfvpP1t86dFT+VdyHtFb55d79TDLMzG7MzHhdiSfDWsoxUdiWDCU5TeZNvtefM8VkYktuqf8A5cf+L/SaiXv8EvziWGin/wDrh9fJlv3ov9UktyHszC9c1cfxs6q6/iZzyqspRQ9jJxaa3ont3ltg8bl9LJ2cbZW/rVno3HSbeaOnvr72y0jUW/DT7fzaUyupOUFAKAvu51/+HyX4dKbexOHneuS/Ver7LPPJeZf6Gz4vyNivl50YoCW2L6LeIrs/0v8AxVO1eRX3vxIkq6ghFB+lTFm0MI4HM58rKPi1WWjobZS+hW6QlsjH6nPqtCsFAKAUAoBQCgO27s/9Fhv7iL/81rnrj+WXa/Mv7f8Ahh2LyKDvc+baMqdiiP2sp/kBXJ6RWrWlLn6I7HRuy1i+0hZ9Cb9n8qhR2lhF7MlZmLO121v7u4VYxSisI1N5MeJjkgcFWYX1VlJHlpXYaPr0Lugo4WVsa/OB8/0nb3FpcuWs8SeU/wA4o02YsSTckm/eSasklFckiq2ylzbPskLLqykeIIrGFanN4hJPsaZnOhVprM4tdqaIyc5WtWMtjMorWRlwxzeVZQ2swmsHRcBhAgzWt0gVvdb4g18/vLmVVqD/AKZXj6YPpFlbwpqU4/3w326q/wC/UnMCc8gvwXrHwGvyqqq+5B43vYbanuQeN72HRcGmWJByUfCuzoQ1KcY8kjlK0tapJ9ZygSmfEdH6ztfzJufjW01FUbEXllcn0pGPv0FT4xbUUuXntIbkstvn/h7GM5C9b427e80SuEtxMYaYnDqwj+2aTo47doAFzbgTdgB491PZ462G9mNp5071cpbc7De2lhMXhos0+Y3OW2YEA8RcA6cK5jSVxXlPFOGrDdzb/OCOt0TaW2pmpPWnjPFJevWzZwO7Rlwy4lsXEikHMJAQVIJBHHXhVva0XRjqTi3LjjyKO9uI15udOSUFuz5/UrO0Z4InYM3SgWysAyq1817A6tYgX1GjVYK2qte6RKdamzb2DMj9KojN2RnDZjoqWbLl8e296iXEGks8DdSknJ4L79G2ILRsOVx7GuP9dRCQXWgFAKAUBW99NoZIxCp1f0vyjs8z8DVho+jrT13w8yl01c6lNUo75b+z/fUpNXRy4oCwbqbOhnMglBJXKRqRob34eA9tQL2tUparhxLfRVrQuNZVFtWOLRYf2Xw3qH9bfOoHt9fn4IuP2e0+XxfqP2Xw3qH9bfOnt9fn4Ifs9p8vi/UfsvhvUP62+dPb6/PwQ/Z7T5fF+o/ZfDeof1t86e31+fgh+z2ny+L9R+y+G9Q/rb509vr8/BD9ntPl8X6mXCbAgicOikMOBzMeIt2nvrCpd1Zx1ZPYbKOjbejNTgtq62Z9sw58PKoFyVNvEaj3ioVVZg0Sq8danJdRzSqkohQEvuztBYZrP/ZyDI1+GvAnu+db7epqTySbWtqSw9zIrePYb4WUixMbHqP2EeqfxCuuoV1Vj1mqvQdKXVwIit5oNnZ+BknkEcS5mPsA5nkKxnOMFmRnCEpvVidFaBYIEwyG+XVjzY6n3k+6vmn6p0kqsugj2v7L79x1ujrfo4Z/Os1q48shQE1sdLR35n4afOu7/TdFwtHN/wBn4LZ55Ky7lmeORvV0BFOafSkD9Zi5dHp+s3/lVto74H2lVpD449hS6sCvOsbsbLwk2DhkOHiJKAMSgvmXqm/fcVSXFWrCpJazLqhSpTpxeqiU/Z7Cfw0X6F+VavaKvzPvNvs9L5V3D9nsJ/DRfoX5U9oq/M+8ez0vlXcP2ewn8NF+hflT2ir8z7x7PS+Vdw/Z7Cfw0X6F+VPaKvzPvHs9L5V3D9nsJ/DRfoX5U9oq/M+8ez0vlXcSEMSooVQAqgAAaAACwA7rVqbbeWbUklhHMd8o8m05T+8jicf4cyH4Cuf0tD30zqdFS1rZLk2vuQ87XY1Ux2Is4rCIsYWzEHhrb+VS1PKMGsGR8UoASVbi2htcH+tZU9eEtelLD7jXVpwqR1Kiyusy4VYV1RQO+3zrKvdXVZatSba5f8NFGztaD1qcEnzNTaW+ccX2YRcQDoyt6A8+fhVjYaLuG+kb1OXP7FXpHSNs/wDzS1ue3Z9znruWYnmeHHyrq1nicu0lu2Im9k7PYgHXrMF1FrHX20ncU6KlrPalrY6l/u4wjbVK7jqrY5auet+i3nUcDhjNZV4RoSx7Aouf6edfO4xcpN89p9DnKNFdrSXkb2wIuklWMfeILflGp+Hvr2hRdWvFcDVeS1Kbm+G7tOjMK605M41u9JbawRv3kg9quRQEOdjxDHfV3bOrGRWspXo3BzWu7KCeqRe+XrcauKLboqS4f8K2WFVafH/pIxzYOCb7HDpOgAtnaQoGHG1z9oL9tgvIdp2unUccSeH9M/4aJ1KcZZSz+eJ0HY+OE8aYueBI+iLCBVOhuLE2I0AtofHuqtrrom4Rec7ybQl0qU5LGNxFbxPPiAUMLBQczOVKrpe2p0yi/GtlvQp5U5vbwRqubmrhwpppNYb6u3kRG0MMmSMI4YICpFiDmLFiwvxBv7hVjTzl5W8q6jjharzgisRhRY6VsMIy2nvd2G0kz9iYeUnzAA+NV1/LYkW1gststf0Wk/ajl/O3yNVhZF/oBQCgFAc325iDNintr1sijwOUe+5866G2gqVFZ7WcVfVHcXUtXnqr6bPMzbxbH+rlCNVZQCfxjj7ePtrC0uemTzvXkbdI2Pszi47mvFb+8h6mFabeyse0EokXW2hHrKeI/wB8q016KqwcWSLW5lb1VUj9VzR0TZ20Y51zRtfmPvDxFUFWjOk8SR2Vvc0riOtTfqu0261Eg0dq7Vjw63c69iD0j8h31uo0J1XiPeRbq8pW0cze3guL/OZSJt4sSzEiUqCb5QFsO4XFXUbOiljVycrPSd1KTanjqWPQ8f8AH8T++b2L8qy9ko/KY/uN3/8AR+HoW7dV5nhMkzlsx6t7aKO3Qdpv7Kqb1U4z1YLGN50eipVp0ekqyznd2E1UMsznW8Oz+hnYAdVusvgezyOlVdanqTKS5pdHNrgyMrSaBQEzs3eBo06KVBNFwyv2DkCb6dx91SaNzOmSady4rVksoyGTZjG5w0gPaAxt7pKsFpaeN77kZa9q9uq/z6mxBtkf2OEhWFT6TaZrc/Hsub8aq9I6WlTpOo/pnmSbaTrVFSorVT3vjg2gK+dzk5ycpb2dTGKisLgfaxMj1GhYgDia20KMq1RU4b28GMpKKyyxxIFUKOwWr6jQoxo0o047orBTSk5NtnutpiUb6UcCWjinA9AlG8GsQfaLedWOj54k48yv0hDMVLl9znNWpVFm3N3o+qMY5LmFjc21KNwzAdo5ju9sS6tulWY7yXa3PRPEtx1HA46OZc8UiuvNTf29oPcappwlB4ksFxCcZrMXk2KxMhQEXtXeHDYcHpZVzeovWf2Dh52rdToVKnwo01K9On8TG7u2Ri4TKqFBnZQCbnS2ptw48NaV6LpS1WxQq9LHWSwSlaTcUj6UNnEwx4tASYCQ4HExPa/sIB9tQr6h0tPsLnQ1dRqOk/7bu1FFhnDdt7W17GU8GHjwPIg1zcoap0aMhHYaxTG8xYnDK6lTccivEHmK206rhLWxnqe411KevFrOOtFS2nsTEgkGRpI+Yv7Cv/uuq0de2M2lhQl1/ZnKaSsr+GXlzj1fdEVNge438P6V0ElBrKfic+lUTw4vuNzY278juGcZEBvrxNuQ/maprrStKjsh70vD6su7TQ1avtqe7Hx+i9ToOydlGR1SNfR4clvpmPv9prl6t1UlrOb2y3/Th2eiOmdGhbwhhYUM4Xb9+vrZdNoomEwZiT05NC3a3M+FtLd9alPEGlxINHWubjXluj+I3Nydm5UM7DV9F/L2nzPwq10ZQwnVfHd2EfS1xrSVJcN/aWerUpzjO+kTYLawnA0LLMveL9Ye4igNv6R9jhZ0xkesOIVTccM+Uf6lAI7w1WNjV/o/oV97T/uvqRWwNniWTrHLGozSNyUcvxHgO81Oq1NSOVtfDtIEIa8sPYuPYWPae0zMQqDJEoyqo7FHAVqoW2q9ee2QubvXWpDZE3tkY4Jhp4WICshZbnQEDUeY18qyq0dapCa5muhXxSnTfFZRFdGKkkLJr4hBY3vw05X7/K9eM2QZnkhEGAN9JcWQQO1YIzfMeWYn/OOVUdzV6SeVuOjtaPR00nvZZfowwRXBmcixnYuv92Oqh8x1v8VRySXCgFAKA8ubAnuNereeN4WTn26sWfFpfszP5gfM1fXstWg8dhx+iodJdRb4ZZedpYFZ4mjbgeB7QewiqSlVlSmpI6q5t416bpy4/mTm+PwTwyGNxYjt7COY7q6KlVjUjrROKuLedCbhPf59aNethpPSOVN1JB5g2PurxpNYZ7GTi8xeGbZ2viLW6eS35j8eNafZ6Wc6q7iR7bc4x0j7zTZiTckkniTqTW5LGxEZtt5Z8r0ErsDY7Yh9biNT1m5/hHf8Ki3VyqMdm97vUn2FjK5nt+Fb39l+bDoaIAAALACwA7AKoG23lnZJJLCPVeHpHbc2WMRFl4MNVPI8j3GtVWkqkcGivRVWOOPA53PCyMVYWYGxBqraaeGUsouLwzxXh4KAUBYdkYXIlz6Ta+A7BXJaVu+mq6kfhj58Tq9FWvQ0taXxS8uCN+qstBQExsvCZRnbieHcPnXb6B0X0EenqL3nuXJer8itua2s9VbiQrpCIKA18fg1mieJxdXBB+Y7xx8qyhNwkpLgYzipxcXxOK7Z2W+GmaKQajgexl7GFdBSqxqR1kUFWlKnLVZpVsNZ6ikZTmVip5qSD7RRpNYZ6m08okE3hxYFhiZvN2PxrU7ek/6o2qvVX9mYsRtfESenPKwPYXa3svavY0acd0V3GLq1Hvk+80QK2Gs6r9Gn/Qn+9f4LVNf/AMv0Lmx/i+pa6hEw8yRhlKsAQQQQeBB0IND1Np5RxLfDdmTZ02eO7YZict79XNxjfl3Ht8aqLq1S7DsNH30bqGrL41v6+shX2mxcMCeFiD2+PI+Hj21BVBauGT1DCwSMO0FYcjyP8jUeVCSMXEyDFr3/AO/CseikMGQ4lewEnv0HzoqL4mL1jZ2fgsx6xsOQ417UqY3GqpVxuLjgpo4Y76Ko9pP8zUHM5TKupGdWXNmDZmDfHz9I4IhXTxA+4O89p/pVzZ2jrPb8K3+h7cV42dLUj8T/ADPoXxVAAAFgNAB2CuiSSWEc4228s+16eFZ383c+uYfqAdNHdo7/AHucZ7mA9oFAUrdbeKPoWwGMUtBquoOeKx4HtBQ+ywIGhr1Np5R40msM94/Y0mEAIIlwzdZJV1RgRoXK8CAdDw7RxIq0oXUZ/FsZU3FrOG2G1HnD2qfkqZHogCYZ1LIUKgqQGRr3zKSCMxtbUW14itqzqe69ue9dfmZUJKM/eW/82HnCqIxJ1up0jZCwy3UnTTsuewc+FeVqiwnLZs2/9PJQ1qjUNv5yN9sKkSifGAhCfssP/wB3EN2KV4qnC4PHtsNGprm71/dhuLmzsej9+pv5Guuzpto4opLxaxxBU9WGH7sCH1mFx4Fm5XgFmdRjQKAqgAAAADgANABQHqgFAKAUBz2BjgsZ1gbAkeKN2j3eyr6SVzQ2b/ucfBuxvPeWxeTLxBtKFxmWVCPzAfGqaVGpF4cWdTC6ozWYyXeRW3cbhJF6Nz0jfdEXWcHutw86k21OvB60di69iIF9Xs6kejm9Z8FHa/pgrEu7+ICZ+iNuVwXA7wKsleUW9XW9Ciloy5UdfU2cuP1RGOpBsQQeRFj76kpp7UQJJxeJbD5evTzJkggZzZFLH8IJ+FYynGCzJ4NlOnOo8QWewsWyt0nYhpzlX1AesfE8BVfX0hFbKe3rLm10LOXvV9i5Lf38C4YeBUUKihVHACqmUnJ5lvOjp0404qMVhIyViZigFARu2djJiBr1XHBh8DzFaqtFVF1mitQjVW3eUjaOx5oT1luvrLqv9POq+dKUN6KqpQnT3o0K1Gk3NlYXO+vorqf5Cq7Sd30FHZ8Uti+7LDRtr09Xb8Mdr+yLJXHnXnuKFmNlBNSLe0rXEtWlFv8AOZhOcYrMmS2D2cF1bU+4fOux0boGFB9JW96XLgvUgVrpy2R2I366IiCgFAKAjNu7EixceSUaj0XHpKe7u7q20a0qTzE1VqMascSOZ7a3PxOHJIXpU9eMX/UvEe8d9W9K8p1Op9ZU1bSpDrXUV88qlEUUB8FATGzd2cVP6ELAes/VX36nyBrRUuaUN77jfTtqs9y79h1DdXYxwmHETOGOYsSBYa20F/DjVPcVulnrJFvb0nShqtkxWg3igMWJw6SIySKGRhZlYXBHIivGk1hmUJyhJSi8NHM95PozZSZMEbrx6FzqPyMePgfbUCtacYdx0VpppP3a/evuvQo8+FeJskqMjD7rAg+/jUCcXF4ZdwqRqLWg8rqPcda2emzHWDMWSeCxBBAALHsA1J9laZU9Z4RonFb3uLbsjdeaZg+JuiDgn3j3fhHfxqfbaNb2z2LxfoVVzpKlSWrR2vnw/wB8i8wQqihEUKoFgBwFXcYqK1YrYc/OcpycpPLZkrIxFAKApe+u44xTfWcKwixQ9a/RzW4LKBqD+MajTjYUBTMLtXE4GTo7nCSE9bD4kBsLMTxaJ7hbtr6JUm+oY0BuTbfhGuK2VNC3a+DcGM94Ulf9JrZCtOHws1ToU5/FE8HenZq2KptFjyyxj36Vsd1Wf9vI0qxoL+vmMTvdL1psNgEw9yScVjGBIudSpeyr4AnwrS5N72SYwjHcsEtsDd2aVunaR5JnHWxUykKin7uGRwCx/EQFF9AeBxMi+7L2bHh4+jiFhckkm7Mx4s5OrMedAbdAKAUAoBQGjtiGAxM+IC5EBYs33QOJuNRWynVnTeYvBprW9KssVI5I+bYGCQZnUAC1y0jW1IABue0kCpHt1fn4IhftFp8vi/UlMJg4ohaNEXna1/M8ajzqzn8TyTaVvSorFOKXYbGccxpx14VrNxhd4nZkORmUBmU2JAa9iR2A5T7K9UmtzMZQjL4lk0tm4jCYhc8IjddOsEsCCLgjMouLdorPpZ/M+8w9npfKu5G7NiI4luzKq5lXkMzsEUadpZgB3mtbed5sSS3GfMOY5efKh6fMw5jl58qA9UAoBQCgMOMxKRIzyMFRRdmY2AHfQEQkeBxJGXo2ZgxGW6t1GVWuNCCGZQQdda1SowlvRplb05b0bOG2LCgstwCfW4nlVbcaFt7ievPPZnYSbefQQ1YI2Y8HEDoAT3m9ZU9CWNPdDPblmx3FR8TZS1tLW7qs4wjBYisLqNLbe89VkeCgFAKAUAoDT2htSKDL0r5c5IXRiSQLmwUE6DWgMeKjw0kgjkWJnZWcKyqWKqVBbUcAXT9QrKM5R3MxlCMt6MY2DhP4eH9C1n09X5n3mHQUvlXcbeHwEUfoRIv5VUfAVhKcpb2ZqEY7kbNYmQoBQCgFAKAjNsYnCgpFicjF7lUZC9wpUEgAGwBddfxCsZRUlhozhUnTeYPHYRbbn7PlGZY8o19B2UaEg6E8wa0Ss6L4E6OlbqP9s9qRih3V2csvRWLSBekyl2NlvYMbaAE348bGsVZUVw8T2Wlrp/28EWHBYCGHSKNE/KBf28TW+FKEPhWCFUr1KvxybNuthqFAKAUAoBQGvtCGJ4mE6o0diWEgBWwFyTm0tagKlg91dmyr0mGMsCk2+wmngUnjohIU3uD6Ot6A+4PdfCOzBcbjHyuY2H1l1641KggAkjtynSgJbZ27+BhlGSJWmykiSQtLJZSoPXkLEG7LpftoCeoBQCgFAKAUAoDS2zs8YjDywFiokQoWAuRcWvagIHG7kQyGVrrmlzls0SsCWmimUuCeuEMeUA9jnhQHlNxYs8rPJnEsySkMl7hMR9Y6N7tldb9UdUZV01oD5NuJEVlCyZWlYuxCDrE4p8UBJYguoz5LE8BxFASWxt20wzsyEdaCOE9TrfZZrNmJJsQ1spv6I10oCJg3DAwyYY4i6xsrqwj1ORCoVszsCpv1gLBhcaA0B9wm5P2kkkkiqzTdIBGgFwuNXFr0jcXPUVRf0AzgXvQGXZ240UTKS+cLJHJlMagN0SzgNJqc8xM92lOp6NNNKAbL3HiiKkv0mWYTdZb5iqSque7EF7y5s4AJKrppQFsoBQCgFAaO2NnDERGMsVOZHVgAcrxusimx0IDKNO2gIvG7r9O0cmIlEkkYNm6JQAemhmuguctuhC8SbMdaA1ptyIz0VnC5Hkdvs1JYyTLMXU/clBRV6TU5b91gPOH3DhSbplaz3zXVFVrn63mIYagsMXYn/wClPICT3V3fXBQmJXzXbMTYqNFVBoWIBsovawJubCgJqgFAKAUAoBQEJvJsH630REmQxMzC6lgcylbHK6nt50BC7Q3EDNNKsgZ5M5CsgGYyTwTlZn1MqAw5ApFshy99AZNj7k9G+HmkkXPFmJRAcgJmllHREFcn9rlOhDBQLCgLjQCgFAKAUAoBQEXtDYkc2Jinck9EkiBQSLmR4XzEqQdOhtbgc3dQERPuRGyy3kOZ40jDZBdQmIlxFuNyrGQKy3Fwg8gPh3HiyWDLm6OFLtEGU9DI8lmVmJaMlwMhbQItjoKA2tjbqrh51mEpYrCIcpUAZVA62nB7i1/Vyrbqg0BYqAUAoBQCgFAY8RFmRlvbMCL2BtcW4MCD4EWoCpfsEnRCLp2yhy4UKAi3VFAjUHqWyXsDa7MbcLAbOM3LidkYOUCzPPZUUXZ5kmvpbUGMLc30J0vYgDe2Vu5Hh5EkQ6qkykZVGYzzJMzNb7wKAeFATVAKAUAoBQCgFAKAUAoBQCgFAKAUAoBQCgFAKAUAoBQCgFAKAUAoBQCgFAKAUAoBQCgFAKAUAoBQCgFAKAUAoBQCgFAKAUAoBQCgFAKAUAoBQCgP/9k=;" vertex="1" parent="1">
          <mxGeometry x="10.060000000000002" y="-10" width="216" height="57.47" as="geometry" />
        </mxCell>
        <mxCell id="Bg5k5mws3xVHbePD2vZb-7" value="" style="image;html=1;image=img/lib/clip_art/networking/Wireless_Router_N_128x128.png;gradientColor=default;" vertex="1" parent="1">
          <mxGeometry x="470" y="310" width="80" height="80" as="geometry" />
        </mxCell>
        <mxCell id="Bg5k5mws3xVHbePD2vZb-12" value="&lt;b&gt;Desktop&lt;br&gt;Laptop&lt;/b&gt;" style="image;html=1;image=img/lib/clip_art/computers/Laptop_128x128.png;gradientColor=default;" vertex="1" parent="1">
          <mxGeometry x="280" y="80" width="50" height="50" as="geometry" />
        </mxCell>
        <mxCell id="Bg5k5mws3xVHbePD2vZb-13" value="" style="edgeStyle=orthogonalEdgeStyle;curved=1;orthogonalLoop=1;jettySize=auto;html=1;entryX=0;entryY=0.5;entryDx=0;entryDy=0;endArrow=none;" edge="1" parent="1" source="Bg5k5mws3xVHbePD2vZb-6" target="Bg5k5mws3xVHbePD2vZb-12">
          <mxGeometry relative="1" as="geometry">
            <mxPoint x="226.05999999999995" y="18.799999999999955" as="sourcePoint" />
            <mxPoint x="450" y="260" as="targetPoint" />
          </mxGeometry>
        </mxCell>
        <mxCell id="Bg5k5mws3xVHbePD2vZb-16" style="edgeStyle=orthogonalEdgeStyle;curved=1;orthogonalLoop=1;jettySize=auto;html=1;entryX=0;entryY=0.5;entryDx=0;entryDy=0;fontColor=#000000;" edge="1" parent="1" source="Bg5k5mws3xVHbePD2vZb-17" target="Bg5k5mws3xVHbePD2vZb-7">
          <mxGeometry relative="1" as="geometry" />
        </mxCell>
        <mxCell id="Bg5k5mws3xVHbePD2vZb-17" value="Sensor" style="shape=image;verticalLabelPosition=bottom;labelBackgroundColor=default;verticalAlign=top;aspect=fixed;imageAspect=0;image=data:image/webp,UklGRhafAABXRUJQVlA4WAoAAAAgAAAAcQIAcQIASUNDUAwCAAAAAAIMbGNtcwIQAABtbnRyUkdCIFhZWiAH3AABABkAAwApADlhY3NwQVBQTAAAAAAAAAAAAAAAAAAAAAAAAAAAAAAAAAAA9tYAAQAAAADTLWxjbXMAAAAAAAAAAAAAAAAAAAAAAAAAAAAAAAAAAAAAAAAAAAAAAAAAAAAAAAAAAAAAAApkZXNjAAAA/AAAAF5jcHJ0AAABXAAAAAt3dHB0AAABaAAAABRia3B0AAABfAAAABRyWFlaAAABkAAAABRnWFlaAAABpAAAABRiWFlaAAABuAAAABRyVFJDAAABzAAAAEBnVFJDAAABzAAAAEBiVFJDAAABzAAAAEBkZXNjAAAAAAAAAANjMgAAAAAAAAAAAAAAAAAAAAAAAAAAAAAAAAAAAAAAAAAAAAAAAAAAAAAAAAAAAAAAAAAAAAAAAAAAAAAAAAAAAAAAAAAAAAAAAAAAAAAAAAAAAAB0ZXh0AAAAAEZCAABYWVogAAAAAAAA9tYAAQAAAADTLVhZWiAAAAAAAAADFgAAAzMAAAKkWFlaIAAAAAAAAG+iAAA49QAAA5BYWVogAAAAAAAAYpkAALeFAAAY2lhZWiAAAAAAAAAkoAAAD4QAALbPY3VydgAAAAAAAAAaAAAAywHJA2MFkghrC/YQPxVRGzQh8SmQMhg7kkYFUXdd7WtwegWJsZp8rGm/fdPD6TD//1ZQOCDknAAAsLgBnQEqcgJyAj4tFIhDIaEhEimlYBgCxLS3fgX5r2VXtXwamPUvVXi/faxuuw77bxd4IPR5/pPUG/2HRH/eX1Hfsd62P/n/af3R/5Ppx/VM/uX/g9iL+T/2n1s//l+6nw2/4v/yfuB7Xn//9gD//+15/AP/z1z/Tv+i/ij+43zb+J/qH9O/rv62f23/0/5z2v/Dfln6Z/cv8f/bP7D/3f9d8Tv9F5f/Sv5H/SehP8W+t31r+0f4H/Nf2n/5f7r47/un+E/dj/I/tz7P+/v9z/vf7Of2v9lvsF/EP43/Sv7J/jf8f/W//r/t/dR/su2vzT/Tf5f+//u78Avp38i/tP9j/xn+k/vf7afHz7l/f/8L/ev8z/V///8j/lH9U/tn91/YH+8f//8AP4n/JP7F/bf2h/tn/+/5H2l/c/9r42v1X/Sf6X/U/uX/hvsB/i38u/vv9n/y3+3/u3///5v4mftn+o/wP+e/6n+L////a+JX5J/b/9b/hP9F/2v8F//v+h+gn8Y/mH+A/tH+K/5X97////S+5T/e/nh8+f2u/23uV/qr/rvzr/f///kZQFtLq9OpYVda+SOLrVKLLdfUkvKutfJHF1qlFluvqSXlXWvkji61Siy3X1JLyrrXyRxdapRZbr6kl5V1r5I4utUost19SS8q61595eZxMEOsLlAOerKmWcz0j+r2BaLg3wDBGHQc9WVMs5npH9XsC0XBvgGCMOg56sqZZzPSP6vYFouDfAMEYdBz1ZUyzmekf1ewLRcG+AYIw6DnqyplnM9I/q9gWi4N8DQzYT9HSCuyokPRIeiQ9Eh6JD0Q/0gZWy5sDSDCuAD5Wwki/YGkGFc6FoQXTpTOlTvZwAoItEROMVpqursmHOW8mDuoqoGBf8AcdoqAb7p9IpJb1N3qZmkxrpU10R4dushIh/TZWzKNwRlr5781y8EEM3+QkxsETQkbYT7EfjqALnj/GbVQx5aUQNtgPj5g/keER0Sy+oDUrEBB3okPRIUvnPfbO6I8O3WQ7tLu1j8pHrBeNlFO8LXr7pj1vSthI9zYr5tvOLfwi6QaZ047bWyAyiSABxsC2W0r2pu9Td3pP810qa6I8O3WQjrLRRidBLIAbH8CTLYKZYuFnm6YCDA6zO6AO+FPZjqU9gined8HHv5vvWoUAFXqbvU3QiaQnfcqJD0SFrxAaQYVuI3l36Ikgj10D7H913Xjquf180HIpFuyYvEwoZ3hnvGRbvos990Op0odVdxPCdzc/uKxvn8MCVClUOZ1XubTovg4op7N0UYBc1tx/iWmSNiKbR6S5zCkRHI7XJZULULoTvqSz9XpTT2LvT4RszWLtJ+UwZ/wT51iRQMsiktR5oEEFIHQc4/PME0J9HX5W1dENtKyhTbWl1aYsRqbvqG/ie4dGqwlam2O3kutDqApnTjaOo2RxEGDTwkmFsJ4VsbjQe6OeBzW9q4kaJvo7PRqMZnwCVPzWmET+mylATws8ipQPCWuSY2Gw7WZ7qEO/152iYE7F/HDc43vSKBPncwVdydGl1sPqYRH14qrTkXzUGBgsdg18RqpZKKkLY3ExVkEs6Rlcuasx7Aj0vrvaJ/jvJU/FrM91B+xLdN9RkHe5qR7l1iKW0d9m1hV+qt9qSPUyvwYqYiu8q+phOGqVQGbXLg4Bx2MQ43jNrBMXp6Jlzny6sstDPknbaerUOj8ZH8SMsW28IdNEnMPNmkdW+U+zCsDps0S9d9A8xXheQjO9jTPZm5K9czkkMspHcYL8Oq5/Xzv2BpBfNbu9Td6m71N3g/yDCuAD5Wwki/CrmmjpVhEGVb4hVVRQ4g6Q63OReCvlumauVtDs4A1GxNMXRhuHv7IqSvEahXuV6UOyjvwb+BMZIdC49KDf8ePdkM1X2LPpBXZT68BH8UDcZB0GoA72USc/24F4vt51/j/g7VqJ9N6WpnFFW0b5qmd8Hej8Nyn0p8qbnQ06Q2DjsNCjoh+qZYGvuYY50+7F7zf+hpgaKNEIcAZC+h/jH3BaE40YOkPSGGk43J5pOt2isrgSu4ojgB8rYSRcsCR6HLyP8Rp+y3HZB7vE4ftE9KDF5oos6HplaqOoIshRmRUwIPCTziRF/XhCRrS2X5SuqPio1AaaXGBaFmxyfhT57Wi61OIZ2HmnbN4vH8a0/IoHLq+7JCWiXHROGsaWzL5NhmTQsuZ4duEwj7DswGZdnWW5Eg3dnYhVtkAWjDjLzN1DpuhHaw+gJ38Z6NV/1wZN4sy4RW4svcUpjt1IuQifOD+XtRxHWEq19QJtnOqC48S+lArWDxYAtLtyDHDGeWDSpP/UWOuAj8lRyTjhFhqoUqF8577ZyEwukSy5I/oc47PyYnGj15Jo9mrLFJFISniAkUqW9hie0sOgiiKHutnaBguZhGmIDkE7svLK9glhwUKHbN0OdO6cK7JPq550ZGdKwrfL9H11pRuap7qqo5UZHL5XssYUKI/JbtH0htDOjH1KAvG32wo0K/X8Ducf9pe/vWlNJ2s4NVmRmpv0BRIMK5+iPDt1kPRIeiQ9BFLZOUoedPI0ucU3y4mkLW3IZLwI1olIcxj+YQzBRZOBeCbuGBqwLsBSHUuPArCpHz6rdMAOaY2e9wHS9pYxlZFcrRhQc3O8lbRGZ+De0U4cEUcR3c5ZNzknyWf2IrRQ8tTQkM05QiI42SuCCkWwT0jdqVgExVjbd4sotqs6N9zrKoYl7ILAhtO8y9aLn2sieMf/TbPFkZl2dZbjOnkuZlAw4cWftYN4GlkDvRAhH/AUB+XvBPfnwACMmyEwpKorwZ/0mKIvKUSLd0jC+Jhn4+JVIFFGfJ21HS4VZ9MZyU0VOTFHkOsGTx9LGlVcrmUcLlHOBqg9276Ty3POMUnL0uOe+5mbxhHFeSZWpW36vQSRR5NcV5staX9h1vzua5SuDiV+d1ennOukcCwWWP6/038Av2zsSantlhOJLwTXcD7Y5sVfX5+prlpYLuQeCmwNT6Mc0OqxDKhbFNwDc23Dk6UeHfZIlzpgfT67BsWfSCuyZsDZIHotul+sLJXyTinvvV7K3CQv62TWly0M5d4gInESf9DVzEV4xQ5s7JQIjEMioVqbDAinixUSRv3t+QvAKHR9LxHm7tPpMt8zZyfx4snk9IkZUWS75HIwaiAK/QamcEHMP2TdHWKWcGqzIy97r8l7LrYRyXM+XTj/30F240juhVxm88WJNVoqkMbQAEbBprj5/dQiAiIahXVFaNAoqsqX1t6YC4nAkQX25fV4fpfcNu/tFwaYZz6fPrdhq/r8yCb/BTLnHNvrTX1Vc/r5vCG2uIa4wDYNT3/B/y1qas0NvznY58Y0WCUPD1xJkFAmqWXn5jryQ0hJw/qByfqwRhb6iHnTE8ZwPvVHefqvwNN12dFFQhaQiRr1Lktiu7ZG8m33czbgWSEi7LlO8+4UjaKV0z8Nh2sz3UIV4ZVP9Mf3rGfpa9v9m9NrfW3jXz1FfV4i9rvlED8xXAaHkdc8A23MMuSTit3R8urJbX8p4/hK82h+Q87vbFUqNa3oTiUPTXZRbZevGNEjudmCqhfmxSGVaxSmGxZ9IK7KXVWB3AkxCue6XNPxh3epu7YlRHL0ceo+pQ3fih581aH30UzIUvnPfbO3tZ2Q1J8XKCaEk1HFbDXDAyaUYHdLn4iW8NSbCpJjqAR5pMEzFEG6u59RLC9pgKImROhI8akAmX5rBh1vq1a8gtVgaRmRG76nD1apudjuSAiv2vaPddvRY0QWWEoLxzC86/yDXDitV5BAzCmR26GJDRpzdLhvCUMsXuvK/f8eZQG1ptIbG6ZO5SthJF+wNIMK5+iPDt1kPRIeiQ9Eh4FYVI+fVcJ35662mp4UKynTEpwjvPVg3a4uRAmsT6BNbxCa8dB6ykYNBaRKiIVdVlPQaIdM8WdVPKBDQe7tSw9SJuqyHl1iABh//jE4xLcZcy9BwP8aLDB6K6dF8nOqb88XOFwA/LI/c5HdzvHMoy7fLAEhd1dBDNZJIUXoivxP1SahmdXyjdx751HFQPhXU/u6ZIRehTpdV2MVqmjGQTEJsKAxO4CWdN06sGqGzgBqHHrpjeAhLVxpIfztLY6EZmuOTtbZ9Luzt0AJq4V/9oJAfM4dkQG4ryvL8kxOG3EkXNQdqaPIP4YDAcf/IxSl0kMZ7D5ZX25HxQgOHePe3eSQiBd92nDTKsRvor00lz2N0ztOMhg3jboiF3VAdEMZbDT8Wsz3UH51Lx47TZjAmreezsZI9AXp2wjtdDARU38gLuIv3XxVKQAO4VrSNmsBy14aEYkwf50xYdp8ToloBCCYIb4syZWbGd4mf5CDQiYSgnPB9ek/zXSppkTJlQChE8DZtoHNvl+kmkVnnWCUNeTjlAXPb7BWU5KmsdokzSMIfr8OWDID8aVrkV0EGGQa/FxlXovkpl+6vEJgoRui1qNIVd5iQG441eJNq4hoZvivbS5IWF5cQOFfH4xx06JckoP0AQ64eS3n8dBx06+d+wNIMK5+iPDt1kPRIeiQ9EhS+c99A6rlknfn1jcz2MuciznpS331OwKqfISR2RBwqNXmYkZc5FnPSlvvqdgVU+QkjsiDhUavMxIy5yLOelLffU7Aqp8hJHZEHCo1eZiRlzkWc9KDS+bP7zGvYkGFc/RHh26yHokPRIeiQ9Eh6JDytjRh3epu9Td6m71N3qbvU3epu9Td6UAAP7+MEIyAAAAAAAAAAAAAAywCD8cmw+0Y7kiUSRFxd6PR7y1uw8FcxgKXagWSTLrTsNk8Ia/5wJHSQwgJyKPiXNaa/4qTvbUQX+3T1TkBADF48zxADF48zxADF48zxADF48zxADF48zxADF48zxADF48zxADF48zxADF48zxADF48zxFziEVGpDBzC/kyR2v+ZurXx9fJn2WdszyvoKLYQPP0HCYRDlHJjeTSaMClGQAAAAK21yLgwrTooF4JZvGqLOE1wCjqna6xHTsSTXihpQVbIHcxDhdY/N7aMek/YWnnDQSwzxQrzn+bCW6dn4yLUPG84w2alPfgAxu/FSIqiEoHgPN2OP8Fu39L7qZy3WAKBPkT+DsAn/gFhRTLaiJs4PAS1CYKQGKUv1HQWhKKB2e9TlmUg+tbCgvFrp4TAo/uvLxpblkZq4ZWra67RnV40jzPImnrGjL7NLnKaqgCYnfIchw2aBfDy8vn5jZaTJhknlDxQYxY8rONmXoDY2pMv92rW/azQsjxl0TWLj5uhOzqsBceYxLEyaiv+JL9EBxgk80xpSKEeNXk1wJNHT0/U2qdRFQp66aelgMP0Dknxfe+gZEbpYGTBpRWfSoma0GhHxfIr/JPtTg6yBHtl0xQio9Bsq4G2+xWATQFNSRlL7bdo/FdAPO3x4YNkveAUlLKDVgRrLxCX1nIW7Oe9uFMBLbD1CHAatdiq/KMnkDmkElxWAXWE3LBzFHrmvtAOh0nMQ1x7dnK8gUrWmmg4tRhPSn3Ha3aK55OTjclUwW5PZCn376r8ItJsT7MHqCBkkK5LJ5h0s2DND7tq5j5IVRR/o3+Yi9ltU8HP6iiQwp5LWcm4Hvjzz2KJUPmX6IrTcsntF5XIOEvdsFMC1a/uHH7r5PHy2nG9NKAuZdBWuW/yQCo9WG5izU8E1p89a+GUBNgVU48mCng2h7PeCaXmq8m3S0XbwKhRI0wl7JMFQhbgIelwteGdqpWI1lcQAE1BA8Byv21LMNRS2B4DHwV2A+Z7MoP9S00dZG1/5Xp39D7wNbgE5i5gqzSRNZ374fl9PxOz37lPQFd9pRpYdTqwTlKeTNsOrgAHMUVKMUkZS/SJYvu8cqFXMjX0ZCKbva7Y2x+qRvESxtWJDmr+0J5aagWuXTUmKausebZ/AI8nvHGRy85QrFfwRmvBT/+ISRGylZUGUUGgA7QM6KkWECxCUhmp1wPV4HR4KRR7gnFfwOCM1fSQyPG8GukulHVIo+K44iM07KXk7JT7J1vtBjY0V7TjSpby7RFTac2eIwOkbETAhHq6R6zDTQsVlQ9pjP8yrQiy3m5ud8A4BV3i2ZdterXIztG7PBbllV/Q0ET4ISZzTo8pexbM66jLmq8JUduLDte3jvVxD8vSUeAUVgFfk9649wWfHrq+zCYqnNklNO1Fq6kyzXZV3nypvZVmGdaDj2UQUKJrHOBZRycyYZQf788+1PGjktAzG38S/F3Zp9T7KLV/GYbIDzLYq2g7OhVoKdv2sbCNC5SAhmSeeDjE2hrSz0yxFoK0Ohfsrg0R4ffIUZ1tuRCgr1d0rCrR3mQ2VZOmIkYkAohZiE5RN+bkwmIXtZ/AtFmmd79QNFAKBcp20cRGV5BOIZ+FTZ+sZt3PFeDOhO760+XDK+s3UVsXst3tMY4GP4EN/1WYqe2HpjwF7ksb4He/dZzVOn+RJLNyPGfwBneBrTVz5Mt8+sfZKHVe3G20DTAT6zvvxOSBPI8eHJ6v+YzSUEwkfg+takQgfR+OBMipjSTrDDeEmtAsvROkuae69gVmgDY3CTQ1vOCs6cmAKTfxe9ZPWCdiXU4PNpb/yaJ4R3iZNRqY2IbDWqVktg3unL/Nedx67SJc97Fxs8tS+DFHDvjmsjMdkpsPPp4RDIvfcfpJPD36goTJnuj3sSxsx0MaKr7IAWipqrqkfBgDw7dcdtTV2k/EKFlHGThwmwSOaXvwjQD948lR/Qdg8ZXoeg4R2xqrY4FnzO3Lt4TH389jqhd6Mq/Ey9onyK4MNSXWn9jb3sXSmrYKdyZ4a8qh3YVDkZoCqxg4ScppMXsdG1t0YG+GqfHdS3jjfNoKRpJsAzq8NiLzgixjDxmxXq7pu/p+zWjy3/4ZKZkui7/1K5Hkx7nb8vS+z7S8gKot3kfJdctOjJG04DQTstCiqmX2WZO8Py8ZuLW/fE+uObXQHq16C/QKBjaZbwdMxIaoRXShZJkYlbKMCQ3H+DwLVn/C42360s6r67BzOOoIQABiLW1T6/BKaFIHNxwzuKvYqQSOXzLPBcfVPrQ1tmQUdoUQeDFqRq/A0DaTW80Le1tVJQU66ovZWLrPBS7KrLajs84cyTBIqOJoAN9aLP3/nEtJLojd4KsGrKclKS84J55bxdR7bXlwiBXKduxndNv2MOdu7tMUZmecJsCIE8VAEALZQIuSuBawZyNPCeTRVTH7sp4ftweNv1zU4X4TWnjpO7KQIv67ELVex3IUVG7u5gLu0V4YfYUZcLWI+lI2o9/51UEe40y7xKfJcp4/yCLoB+FDNxh0x5fKAHggvNz24Rvs9q6A+CvSiw5Rq1d+DopCemPO+R0MvdYQ2NtKWYRX+IZl2R05105qz/5sqBrtWB4huX3ijHkzjHD0lcjsMprjs9CIAGya8V3e48oPr9tLqLG72VGoQncdsk9dj1NEf4PSrjUC+6XpHz/+yXLlWBeLZURhJCN+rQMxsKGDMIUyvp9jSLFPwfGUKPUPXPz/fLySy4zJ07TTlY0Ku/sgULEMDgb71OMhl7nPdtS3hNd9Hvp024va+PbARXVSQtTRPU0FwD8BwlwJ2BLtcatTnsTeDnz/v8SRZ4qtYRtVipc9fqLqZ6YaV0PB2Bn8YPMidMLLapd1M6EsFQNCLOW/0xjU2bCWR9AWBVN9zhal5oU/BYEAPlQflnyktjCinfe8vUmGNw9kisN/bmipM45tJhBG5iNidMuL88CSMR+/WbmvlwU5sCi5O4jZuvnhLOwM8OQSD8ZgErNVCHEeFnQi9pseiH9u4WsR9KLzZPmWvVXemUVDorNdpgRNGRrKwORmLBZx64gNzMfw0F0BvqV7verVaxHE0Jo/+3pUKYkdgdbkLwFbGCOJefgz6L8MIcC+O6BUOdkxpYrj8Ys8bzjN5eCKdvMO4clMIHcimokmGaB7hFzDvH3BGIdNlZGkqMRrDvQjtogO3rEgIVrIcatjYnwT6bl8F3C3eZbYVboEtzGrAx3Q3Dqwhy25PegBuslO6k6ac4DcRS0qDdheumCo5AmrVbJsAjgA7ibpjed4SAdDjsoo42mQP6Rw6tsMMakT4W3hlpvjJEDivwp6c4gEAHcCFo8xckiFqpvYiiE6G6FX28FNuvCyo9fW5ctXCYJ30P/Wjqx9v1paMntxXK0rFnODsr5Qt90cNXTpUG06cc1wVQbX1hd1Io5P8wvxmulVmPR4JCGKYHgEksfYy9AWOw5yQEz1RUEJ/5LbrFqb6v+Zb4qxZI7u7DY7miH4v4bhMLSm04VZW6mBY91jw+qwVGjJjto+bDudkc9zfqviCp1cZO+6Pp7I3mKmx2folloNPk1kFIW8u9q2nmYv85UYV5K58IcLTspTe9Ejch976x56LKqjCsqYHPKahkS6gDXImxpS6hMhKycFnLu7FfxVEUbwOif08nuNpz7cgXkssxFpjxNq94UMLYVE4kWvMyn0bShlv/W3027WtFqG9JDORgL4+15JRda0baIyEM4YHah7nMuNo7T9aIr9i6sxSjDiXQom126eoFZQRl34fVuHWV1Bq/jItoDMEOMs5okCKx7S/l27AIejPr6Ia+d5vHbJ+cg6SGY/XSfifJuU8/jnUlE8yu9ZUdTxscwvRgDT/bTFZCDVJ6ZA2Tq0O0q5AnoOAM9A9Xe9flq8slMkAPU0jT0hEqZNpAl/VepgqNrJoE9BWv/zVIhf+/pM74QozJNGsgD4DmqwUyGC+8VPHbV9NXplzOtmmTZLWTE7VZcUZEcTWDVBz/gMaJjwAAFL8LdKTm4aaXNalU3TeOoxdrBaxC7UVUK+mSFvDbJrQI2euBM9VkFcu0kkUPbrt23+KAaUfEE2HeUPwuUPm5mgAJ8AMG4+PAg2sTQJvGDYdxldv9V5FrdDY3GZUvlm0LPY3wC7S76f60Oc8oK8jabYqmsuvzNQ+n/RaBcU49zKprvwqUH5CvKvCOLe6CxH65Q+QqOBoIyagRE0JIcOWKTbyKegqzYxsKKb0qYiFW2Fp55mQuTrHD4yxHiHeLxKZYvmB1cRljsqhTnTDpAE296O2OIZZG34yC70M0xvci1icE0U96GQ8C+1mmSDuE56thfEhBc3AT9tgNlg5fOvXqwvpp/CWZbz7160tIyQ7Fn0VzK0rFZX15E6ny4CXBPJ0z4cOSQY1Q25rWn2BEjTEo2riV+UvoqSocs/OVRNLQrGJyUKe1VjOHPnCkpa5tmMouFmXA/Y0ltbP+iPwXdqopQ8ScQ0J/luYF1JsNs+/vOMQmk0XQuuhwZbrAF9LM4K6AeQN5ZKCAlZx2U0U8gelTZuOEYs+DxYGUUC+iJ2zf5tl8bc9BdLYL3Cm4HF7b6WMM4qZC7+/kHixoKS1u9de58s95JXmv0MlX663NmYr8e+EIytCdZViHew2OUDWYSCze1Z5JUNUuXMHLhKGax20hsop9iUW8HVMPGmS00qLsT0ADSOYXrM+82zTy+QRi1DWrktE5Jo7NRRN+8rnKBkFw0wK52+Q1YNjtg1Qd3A+dFwk5StUbpVWyjEzYqi0Hx4WQvtRTE0xiO3bkVVQBdprvRg7l2SvlLP4fG6chlwgtptqBiVIXHNEtPETIJYGQWxCu1xF33tO/CkXD7VbqJ7jbcLP/a+0KNKIeykgQGK33och3437XsJ2PNqmRBSqFDGNdtNAs697LxmdkMP6KqSkmuSDYKZCr4QcVvEgnkImOKsdiB9Aw4sclY00XI7oOwasC/wiaU8qOGkhRebK9sum/nLP3jqKI2s4jUyJBqtxVNq29n3JCAe2A97AG1qvKCl3RGy/gD7RaeSDnPSQe4M1STmJevPMCcl+jTRhUtpWkLaR9V9C4oiNJ2mLgghrZiFilc8NUbBvwIIH+6j+fS+kKkRpXi1OQdYI8cgDhQn0YoqqCxiDKp3cUDeY57N5bNSqwP5FeOhxDPzrDvwEcscePJBk7clG0xYoczVeNsAbgWdE6EMy2urliuAiYYFpxRs6xHObVvEkvITg40POLGlHEPdtyIidXwaZGYD5+sNn5DodPHXl9zxgc5nuvPSSbVcFeKD32SfjN/WjfjqBZJJZgDkdrKVpcD2qYH1wpQv4rg7tRcDSr8adNraryhQumxlMSZkP2+mm/FHStmhtpNrdZNcZBFM9/BGIWX2cAv/kv7X/6TtZDkk6yKTqkd/IMx0As35TASBYD9v2/oSj6Gcfi2S0JFGdu6unIR7sBkhFjruKZ/p/p72BKe6o7B6f/VQO2gw2shvtGIvFaPXhQFLQJ05+TBJS97ci1bH9D0gZgmW/3/7yNjwu1RvqoN8gMuwvuxzqAv2sKuuVV2FTgvV0IbX592Vtaqw6IKekKN8Sw+pwT9+d7xlzZLry2loJSlArGiR4yt0W5nX6NDGP17IzT3LHumTZ9Oit+purYOgjIMvU1A5rOUqsG3M3sqyjwph2wgaKMh8eKhOiSAyJdhRhHgg7yvDKu8xneOqo2m6w1biFswvkjdYMSZeBiPQYTfO7F05HO6VP1lGBaPMRXkKK9Xj5mm5wsK6vfqVFZQSfBAd56rJnOrEfdrle9wmazgtsNxNsj00Vir1ajR0166Jee+81/gUg0iTx+s2zO5snUFvnnIZqrjx3ny/V1sl0c0pElOhS2YjrMGHwuYSjPZ9qBJpjJdyUbxjk7cA6lF0bcDwqH6ErLGgPeBTsjZLoZUi2Kxlw4Pk3NVld/rajhseYu6zNI1Hir2OAaA4yuWR/j40A+jMChE92E9SstKDj3OtUMdO+DTUx/0kQzOT6QQUI1bQalpPMA2WHTed1nrPdYONyWbsMe4Tpbq3UgSmQjcxcTAPEfAJtM238fCEz9f5sqQoArEimTOdmGoae0Dj1ms2dO67RTrb9vIVowVRdGqFoomJfQv6XNcMr/tBWKNjoqBIizV1IgKod2ZqRkVnyMczJc1kCWndVuF2PwGhUpBHUNGQqfG8z61VoX5jEkoyNTgJq4UDEEAKhw0omPMuAa3cNaiK807KpoehdL0GcyWhxXUKy4k77zEpZ3O7alx5aOLuC+Qt56Oz1sG6uyPAekGW7o91jOSOcOEKcyga0c4/p4GbB4y3HxbtDDdZVb1LJExgij+4gB3HJlFO0EJg0ogqpaEz/+d1hnyb7/vSAfwGZP6MWzzC2szriN49PH2Cs+wHDHW8nJYMG7NR0PX1EPKzvK/CcH6r7fDRz+eIDIyI5Ib+gXY+H0aGLq95UQhvg1iaGr+X/F/5FEFn1qmvecRHE2uv+sP6PoMTGSxU1HsU8vYRjQKrb4dGGq4Q/zwJ8wVvgeEdAZVDIhrow3Qv/jLw/EuYKo3F4Tgh/tTNpX/uG5UQ7Gc3DGYIqyf5QLGoBmBWnVl0qGiz+Wp5EiQA6ApEfZXHGsg0U6pW6DdES3/EjiSLns/OKdZoWx+8tae+HByszy8+BkTbiclPXte5LcF8iEG3bAmVZEbMdV6cvSOnnl48P2aKjPUF9IxvAFyCnhZ1EXLQI3k7ojYDndaQgsVhLtmH0MXQlR5jqkgMtvo5EFBvwzR7KTMliBOYHbqaDKJNZTWP/YeAHJIrbGy1BxaypcQ9ETPgwBx0gob6gkUfH7PtIRdwS01bk1pj8QxbsvYcFV3NW1dFOvbqaWoAlXlHHjmgj/h4NjIU2v4RAVeuz11c+r39is5MzwfmpQda6lJ0JZt4S9IBoJJ1Z5SOa6VQtq6WWBvdo4MOhYV58DdtMqsNiLezKVX8XvzHLG5qokkSDV+cHJzltDu6FtT0/dYYzJLP1e/q0COd7lsEECv77lGRbwVq5aCaKs/qKKA0cyo2y4FZZ4xkouC4boWddAZi4T7MuBiYxnqD5XJ0AbV+JigV5VsOw2xLxrwlF8zmdrcVFCUg5R/fxvtiJZ/IdMtWHNTWS8Xz7LJeJRMUwiOJnojEnFQXW7qtdtB2Dosmnk/GB6fMdz1h6tAU0CQ3V3sSSdPWmKfxcUR+HJk87y+zxr/hTSTIHCJ9u22Rw30swv31Yn6s9yNvowa9hG9o3p42dIDM/9BTEvkOydHemvOote6OYAe5TCyVxdJxTzpqQuafRPjychXAenKwfuAHnP07qOc32+pbMPvi7aeYSkLILqqL0OVrbVZE9jE51lKWFm27eoWKvjysOL/3HNgUwpn8GVfzIOC2FuFYoNlFGTAEkX9cwUmtoBXCy7Gn5HPB+Hy0srr/S++zPTpkRR5U7NlBD74O66oxQx+yq86kDHTw+41DS7DFwbzTqLpR2pzUA+2PYeOlZDQRcsA7tCfdMOlyWAYTsA+qqn+XRDWDpReFncryMNF90Q8FelknmpI5EOtWYcd2DBGGXe6CfsjGUfiH+pMV9+TRY5/1jW5Yh7JkfBvQTbEQERIHGaUFoIde6ioiJJdTgviP2DHbgf+nOQ5F5+KkSiK1mkVfcGlDjC8vUtxmmoCeCxcFGjnUSmkrXOXGutzt2+1vN5+bXMLIT56SdamA9QDE/LVshRIrpkxPwFr8qqhw93Eh4kg1BbmcP5uIWFaVyqR7dPhaeeO+S6AGF/Qp4bqRkXJJWvx9S/Ru6xunNxFuFVqcGeE8KiINiQgmInqHJztPnuni5EGpZxns43qPaqJExbv9evgJGYTXcYAKTo/mC5Myq56zLfkH1TH6IjCMIcHuF8OwUCvYeF/34YFtA57MbkOdyRnMtowV9cq6aVDNzjjVNaiLoUZW3QJJjfjRmuZPayLI+VXdhgbdD0Nw1MrGJIZk8H+b0KKpiS++OEZgPWkWeWSgSGXShWFMIPRSsQy7NZ86K0+olGEwktbq5eBnj4PSLdhHEsOSGCsBPkpOd2FU5NMNwKs0NuIKvpeZEqARTLQu80iabaatTjEzq5yqQI4OF5zrMInePdsbDWhXUHEVuWJPCAHH5pRQPU4EHbEfK9Ch2aOeVH+EujVaDdDkM978doZbkF+W8ELtUl5cEtukC2qHd3NFLv5DhUPI0GlKYYHg8l5pztuZE75bq1eMHjf//ibKm03yFXwzeioSLF9Q8VwLEaGo7A6jZvVwvo3OnOisWe7cvf+xM8IwGQW4Sw0PySlfZb9y4gAxD5YOfNp+XfziPKzofosZNJy62T7IierhRv2pscvyBC8ddm00VYIUV/9Etj7du+whXNj+jCEvGHpgjhx5b8JbCjXWGJ7nU/RSekflMTrnSOz2pAHcQryZAc8EJYkyGJFyypGjFGH3IANL3wBLSAebAa3Hhj+P4BRqNG0mAE+80EAktoiFSabDgDlN7uKc26qF3cTjurwGQSgE6713kqIk4CUA4KkAEZANyfBy/r6xOesfyfipVWSt/auTmuiXQugxc5GFD2zrP6lN4UM/j59eLx7brMNxCZApS11PNFK6k3EcNMn+BBLYN/Jh5GextdCc/M5jpy3s23/+NVpO8kLG4fc7OfGlj22VCyTTMjUlZQ9OkAuGvyGF5z7CCR36RykeEMajeGQhfVR8foeq8Y27/1WJb+q7g+G2xWO8Hw6iG20/PJvnzef49jOT8IYg3ZgPCvJjYjbzQuRR8vSBROCr1qj1tpwiuD3uLKPMzWMFs7bV7siqJzUcj4817BAMLf5xZ2W4jaU/EKgYdh5PmoNDfkCo3Aj5G7W8ip3/LjUNVY0+MO6wnFLjpaRmMAVwHwlz5WACR99HegwoVzhM/LDG3E0zZlImEUeqdNc7ywCI2eMo5r8vIOF/tAAMkr72wNZU23gdAmYw/wSJMtIbDXld1479oJ4FXQl9sV2Nq2jXANykrEe8Q7o2wAt7Jrd1rc/X8k2BFJ4N7cI5TTO8ULlUtoWv8b8g09NUoozZQndIFd6rVmHPxeDNZxh4+xZK9KJlYKiBYcUr6QZtj65okjALerLDSXRiX2eBif5Cyh0nNKwhAJdZLb9qjcDIh881Hk1m35j0LCtXYnWHr7a/kzg6lqJmFGsVY4+QbTnx4y09FspDTVpmmaOXdV7Epgz8W75y7519tWSgtIl73Ax/Cnb20j27T4hpIOjnCNw1uxiTQvfKm4Hfi0u019q5c6unbeSKj11N4QPyZwXNs5GxzcJItiuPvesAyObGEybBfCTRMzOSbIk3e6MgdIIE5vgfGOwsS+aiguyFKMXVTzFHtSdSnckeZRrVqjS1d5dlMokyFS456Q3OXBfnC1d6cjwh0CTWOuVAu5W3dleO/QGJJcRJupLj6HEz77SqHjVTjL3J/VFAMfJTKa4l+UbOvoOkTuV6M+k3pVATi2MGMw0cVIj+BGp3XQOIt/0jakQw0AvFoeKxc/fNPE9QZ+bxo3X2xEGeQBJUukw+0GLtdYFkYCmo0ERyZuWA/JjwBw849zOvBusy5vliXgNIPE2LVIVtBMQWQpf5y/bQZwbWvCf9ftFk4awanFvgLIdIOilTURHyaLnOiZJ85b0S3LeOOuSNvCU0ydWbMAy6kgvFtAQe0SAp/YCJREBpNUHFQjVgpQ314Vb4eyl2mtBWz8TO0g4fAM1KSRDzjvh998EWBS+nEVh79oXzT/uwS0km2Yy37STDLAJZm+9ENNScrI+V1kY6suSOZn3ZJrzSo19j/mdVuX9p5oZQmh+MwIXw/JjRnmnDmmGDt46tpUZef5ouxgdiGPijwD08Uc8Khwa6IvF9eqxaRPgeNTqmOwuzUeds5/uI1/3jFJjkkKS0kTCORyKvBmarGSpp0kBoIRPpznUzs3VOi4qhrPkftjf4n0EdFwlkBXNwPmGA/s++wGO6YF0BoEiolFsEV4JNxbpWBp3CmXm35EyNz0Sl6DXBnoPFfD1N13RxnP3Wxaf3fTXoQGTjdaDNzGhSSvxHahWPz9JkflE/kbOcImGGuJPbZMf8ISlRdzT7H4aHxnImk44O++aDX++j5s6sJnhbu1OxGrWwE/fE+vdVh/FACiKzUPar8STYjJdnzmVh25mYWtWjQT7yJaMPusNcYQIUeMZ7iicGBwT+IzOVLh2WdJhMotsnRObFFxvmgoLdHlUBlXxSxh67F/kt0XUDdAjR7LwOLdVbPSwcUaZTc/u4gwth0rqXLw5mYVSvz+nQ0tKsDC+OBaptnnjcyvOrJABG3cJmF/KJY+sZN8wahed1X9MiV7QWMf2wkrhhbcEBOE8pQI+kujiTIYEEjI0msyw56qV0vi7QD0jZ+AdarWbkM/HF3nm+qZX+gQXBwDNInPqV7NKy8BUV/ucwfI6+G6f5ij11aioj99w/iN7BySjYuOALGaYyjsVEkunTJHkYILSl3PcpEG3fuMXLHxYfLImP5rTUs/hHXNxTIxxl7cm7kGtoHRgWSWB9yxf4jzH0GJ93ZotjnznQHpvxfZI4dtYNiSWV5gtWqHDeLBLcxAPiffHcIVZ8OxbtWrw+yQZ+HKy99ddnX+DJziX3MhB9HBAQ/ScXutIbzb7kkga5F415agTCgPuPAgqb4ezaxgX2ARhIywvZX64wgfE0fI03uIhGn+tbFS5rF/PCoAPnj1LBuwff9lPI586EYCMoWQYBLoRUJyqW48uX1E1i4WkQ7Z4PTaWSLlQjTOAFf/RVle1vvJ0+qK+bVAI45xHKzHekRsfNeOqFbm0tLNdaoeraLK+q2j8ff5U7toqdxGb2CRdHWxC2hZJr8LpE2+6E154298JxnM84dAp0LQDHKvpNwciKJ9sWFqiFyDTKkOX5pyI+BGhMnE0WDTHIpwyz2gzyXQ2nDLwZb6kRreuiSPm/PTnQIrMuU+x2VWb51ufiW1zSd1LEaYo7koTrndabf9/2sVmeq+Krs/t4B7iE4DpF5KbX+uflvjxFUMcTFsw4jD247BkROvU0B6a2Lg55xT9wicwg9HbLVTej9xc9CaC5POHXBVnQ/aQfjdBu0V6mi26HsIrTKzt1C23/wx8Za3TdebCel6uF0tk8KAJX7BqsVrqs3bQGzE9hkUZe6bUjMooJDhlKq2ASMUHd74zyZHS/4/3ezgskvYDc9DNOByS4u8HnbevH8hd/emjMyxR56Lb4lom/+US7OBhoVG/GWN0bj8EOvArfusADPaqU+5mDkj4Eg5BP2Zg0+hfC2FON4v2buQSaJjlQwOUod8Iaq6CGQdCpkqmJNUiPejCtCCFj3sv2iP/eqFawnLI/tRAeKRA6YAGO7ZXHLLpDuL9NLmCL05HE3gL22JXsS7H5q19qoC2WbGqIInz8tps8XCXxL75Lh8bWQHqdi4zkQWTcYBWoLjpebm/sfsonxWxutL58DYmiael8X4+XPW0aXzNbzKqNIn3mb+P2b/XVQpMvXUBKTYb39+iYvffIY0vyC7D/FoAJftNdduoncKlOc92wICXUbRw5K78QLvH/vN5qWrEYa5c+AApyYNW6/IuaRdZpMlzstSD3psVz8DNWl9S8Rbop435dBgQBZ35WoZtP35pMj3WXX1QLi0CfzuANyEAa3Og5HSOHAtTWx7cK++BGpkdS7XfkS+iNLD/1aTjcU/AVutKPknlaj62leHn55YC/MjIfPSH9t3GibQH80Rl3J6ha6WVFBKQ3jTC+xN/LDFgUQC1JDXCMPWM4gcbbaM9ZCrsfj4Hd6jSs8c/SxN+EIjT6i5jy7DDETU1mS0Q2w0pN7nqJ5PLhBonlWQ0o0iKzW/0q7j3iPGgtwZiANOpQLyKJAdc59OuMwB9mHr3vTBcS0sNtQW4cVg4b9T5Hm7JQbi7FyRRkFFu7jmQKDR7hL9K0Rx9GaP8I11xvF59i3iZntk9ByS2/zr0wH24zhPMKSV8l0dsOUV0kPbmlO+MVHHqW4dFsif97aJdjcfIL2ihKoamU3N+0Z3zpiZx5taF63CUZjLFbeYKndhvt4XOpSxO5a84pEXCw9vQBAMV+nKS/5Cw+ZJobJoyYc7lJ0iSVX3a1zXwmIihv2mfqGPyjOqeYBWO0INHFfFP4FH/OCdm05Ey8imzYhaT0lRFuxKOGIBzdDx+K3MW9Xq6CmyjDCB3u/NbK0qPygZxGShEd/6bKaJ42ZN5cuQ3kxlcdxGmZUbcQB3UBQlB/G5w8LJQkyKxmQA9F32/KzHmbmECPXHRso9ySNVf5yenK33pSAAEDgPk+84oeUVAacTIHZd+WvM209zn00Y96r2m0m256HTFNfkDf3gG1tRccwubPA2YTrO6+l7CFFjrbbZ+aHma6h+xzQ4T2pt5UdmwWlT4rZdLy3BJtLfOIFwOSLZ4tTjvCcaGekQ7dbSyE0pBZRfxRo7wHdSXnEBxUwCEEP3LXxFPtv/tKJ493GQiBeFF3e0OzEn1VaeyUt9mAZL7buGyXa7loV1HMdMJAz6UBKmfb6aerkhPcxBO4VKxjIp1Ihqpyi0kfZ2r3LPJTVbW2v3cjp9ikJ3pqL+iHISx8s4vc1kvV1hie5G1e1L+5H5hKUIIV9mbqXXRXDFsDMDt4jnDY2lS8wshaCbFrF3+RCgPSQ5cGK7CHFuEn+czhSmajHNEfleJz64orF41G0DApQ+37GOeU9MC7vAeewjSr73Qo7Zxa9TxmgYDqRpRcb6ipyUHBCCPdIoYaq/ExhSDhfZMtciMJK3OxFJoR7r0kxXLnf0OAaE6gq42HCe9V4/u7UJiShPrJWNh5RhtaI9mq+81huGE+f639qRwkd7k4Jc7Gpo9CVa57t3kJ8igbgH+ZVsxviW1nv104exXXkfuDwXhaLBaq1Tj3O1SlbgIgvk8MTkx0l58KBqwkhthJHqXcgArnk0kioDS6if9kQzIf1kJdEiW0QqIgn3g6dXbtsM/4xlRD7B4fuR45trXWPzmLEX+bCxJ5puPNKe6Dy+w/09IVqzs9JeqtgINuhtD76SY0+PZymZdMXcNrMJJKN4umHMNlbdyJSmUyQ6AfzYWCIiaVLO0ClzFKWeX9OWphRl1bCd44Gs+aJO49w+FBnllX0OlcxCWp9b+BnruXu1PX47i9uSILmV5DY9G80Fto0Zt9QtMwCe1itbrE69sT0F1yYprZUYYRzsQJXZFMJf2xTJzv7vcDu/zcxOt6iKcU7+rsvPkptcn90BhCmodcLRqlLwQ8To0aicqgsH25k05cJTYWwlmQMic+/k8fPUrR3B1HVHu6anB5HX+xcbSFSc7LIcA/DyMhQsQWZmJh6xvBd0HDrVUOUhrbTKrIiQf5mWvW5A2F+gdlSKes4jSuGrixpou4VebP7pO+7JZn45BTNzYTmK84dkrzmNEM4jhgJ+B/fqzCOMu/dZQ9Dnt3tISjB0Mp5BhScoc/8rvf/V7NBTKiVNL5WpLVhP1hyv/Ykxs0WIu72Mlp+aQLMrNLlPHqc28kHJ+17/YSZNHspNdXeNeXiOVK90iSxKqhaVgDe5F1awrbGPeXm004LMv6FyeXSTecowSAcXTRaiL2D6EicNqrM7pGYYzMU5YUZNAoZVaWO+ADzkkMxW3htf9YfhCRiQ+kMlEonXfucxiKi2mWjJEpjg0KcKoRoIkfMYJ7t9Hi7kGOXGdW8pbcGVio3ZSW5l0dvdt9i/Ccs36rVPUSq4RKG3qpoHuL4WnsHv0qKVLGjLYTiyeHfWKJv6VwWlCBepao0hSDC7Tyzsf4hSuv7f4Z1bpB2j/zy/PL40gSe6dzLEQXLXcTtZLiq6BYMDtUHQLRCyUoTd3zKefgTk9+sae/Q7MFNYMO/7FycSQ6LBZhfdy0JC+SrgVLnEuFxmp8hqfXQyH5ZIyl2oTmpyECKWvrO5otqyLsn9nn8IvQkAM5vyqXZaDd+bySMrjbZcsu9V47dXUBrvHMsk26ZxktnVkx2dIEp8bhJcqvJPu3h4M7dKXWFp2c8NG28s+1RWamvHRKDWKnm5KHhHvhKutkL5m5BbNsKtM6NqYjdb9QXmatb4IUcaQrt7Oab4Pvffev+EJdmqbV8Lv16vzWkMDiiWMeLHhBMnC417w4TbvHQd5Wcev18OO3EFRXqHjFvxe2JtAn+fH+aOrK/lReNiKqFCaa3sW5alF9ItyrvlEAknsNTWKEOXBbjsMUTTigFUwAq3FjXEgKHxG8sDoFeoScsKLzcPebCzgeNs4T/2XEm/WmxRMTdeqYDPLyDuBYnkq7rUkwadWBHAC89pW9pclXfIGPThDMDm1NbUTRC+TF/DTJugmWOqu0mjW7tCbuyJYZ6nS9HK/dXarJY3C+cYaaEKut+IkoEpz+L85mRJQic0GtThBOJbcH0+TT2uDmlDLQyEv7gzU3nBcGYc9CW+ETzZQIkwk9FiQVWqPTRiug2ud5kUzuoYMj9Jv5ZbUgyWRSWyeekQQljTpxc1lg4oSgKrU8+I0A7ifWkIeDQ58NmrrfVY5cCIn3zjDnj1+zzNx1mxTEFL1l92jrGtj67kGthlTanzvAJeHkVO3z04pWF6HrQspcpSMQRZhe46k1NXSy+HlCEXfE0oenp9a9+uyoYOoZ3+caw4KxUto08G/8JyBp9gfZhL3bkalZ3JMQpH71rIbIRMUZuFSuJBPpc+ZWSqGkidVkiwrVCL7RtM5k1Iwie8zG9Jcae4BdhyrLTXyFL8HGdPsT3cnAtIXyomrqCl7nbhUVhsRzsXjYzIR5406PsmyGe2n1Pq89SMSFp7ZPsczYYsqzq0mdHvpRql+VFZJrk2ymAdlO+eYSDvd3OWqKirlesgHcPbinf/Gk+6kuY2bIZHZ9BWRQS8j+A2FPsapzw7enabl2aweLRR4mtAS5CfEY9AhNnvQ9twx8GqY9oWZbWPR25cRqAD5mlTEeDf+agqKldPsNcL1O2bheqYPhu1XDa1SmG6Dc0ps+d2liSKB1EIdKFRtTRAnXe7CafyJG61lQJPcvjJUSnl67dLnJHQF31LaFluCiVA8JNSJen/cU3LCwCcAVNipHDI/nGN/5BmfQS+q6GMpBurCF1SE/Dj6jPMQRZ3SIsdyU5FUSo95PTFeExr+sPaYnR0O1zuKfEwXrCMMOoeSvWC9mhDK+0IvgPStgXgNRGxvFWqy4NWczoUrS3EtFTGSBAmfsB37A+PY1znhHLMCRMrljiIYhxkv6v/CwUEbdrC+/LOpuhnmrZTddslYwWsd/PSxEBuQGTHie0GuvHCUKO6aN2w/BI5AeexYPwdYTjD3+R0L9cw8C21R7a62cpoyX3qvpT8ThzXcRM2gLEwW+MM8mqK6AEWJ9eJN4EXRBsUALnVOzj2/YbhYbRIC/ICM9NAEivo2MZ0d6mTiADQ2B24SIzOuzQ4Hy9csF/BPlZtqz1sNKFoAKKDwx3wU5raIFa3UTsZhXzdbFpRiu9pGCfX7MxPs+r38KsBd7ErVO9UdUaJkb8sARxSeDUUEyX/ZZr/ntsNqXqcXf4u/k21PTNDsmvYAh/wUnzPFpxml91JkF/HnhdQMPP9Gy0bUSo5PAYRhN+YKsY3JbDDiSiA6CGXG9ulBxO+a3F0Omtg0fHbFc3DNpfjluClr4Th9N2bgsGLmQWx0p1Oh+5G4g+W9nuzF7qhA0Lm89Ze2lZLWzt0l5jmIz7bKLihXPOV3dVAFN9GN9XhrLz6OlJ+kz2tDg3IsTo2RYGX3f9t6mpGNaXBNV/HkplSV0km8R+ITnDPjMaPV4d5uRvpoNC9w/mgbODOaY/UjSQX9se+0iRaMHdTW7vjj42kaeFzPXU2evYNQ0LZITSi7kGeDBHm2gQS46tGiOF8BK3isDKrujhUol/jUNxCSWve/7GPjrK2VC22GZ/px8DIS8XkL4jX+CEoZYRgPRZmbIxwqdvD0nsfCp7ig9MNHwZhE85giCAW7MIUod7WxKd5lIBSTN4mN6HMP0lUH9IiPKcs3ZnwPyy1lDMjbXe94KC2E1DnKWq+eMD03Z2/iLl5lVT9ipk1ha1WrISRGugSBvqRuAy73akwaLv2fZJP5Qwfop/NtsAKeytNlqyZo3CVSGmvjgnCVeqBoyRjnVPOuGLPvd/zzdYtrt2LyLfUJ+JnDmR58kJ1LCpp50cScQeoSuSfeQcY0X8j3C+d0oPQ5/jrpSRIfvhZz5x6mQtWmaGjNhGcwho6iWoNA9BKG3UAxqsHGTThuNGbjDNoVlfECeQ1srhDl8gTbf0HLiIB63uCkhuKWDDcZThZMUPNqGLg5Shywr3TT0k1JeUsqB66iYA/rjVbJBRmknuQdy2S50ncXydeJ5n7v/WrnFzIweXDWYp+m6ergf3/NW1hf1bpLn++rjl+WDSBVh9wuTHKMVO8x/Fr1X4oL2QrlzVlApee1hqjW+yywl+XIc0pYnxKzCwSHmETvqnaDjqKBz8JWqArKC1hU8BU1yVnT9HjYVgy+y8zw7msFK1Kr+sh1Vhw7qabzjfwb52R/gcpLnYrV9Wn9YClqBzklBOpjT5lltL9aJTFKLe/KAM4AaNTNDnAwFiAtuzGAna+2sBPq38Wv0egQ5OlvH1p+o0dnnZbbbFVAoQAjNE1gQaNhhM1smwMpVeaIMkTXadC9pbq7bf+VWdyF3Ehrxzh++0ldF6nvNj91yfpouznCSLX1BqhyOm4vYnPGSMQRFspdpa1vDi1MgwENjxcEB0mJ7NiBExd00WzA2oJy0aYwatxdiXXYyIqpS1l3Rl9UZAOrbMtjOA+m1+ZlBxXUCaVzryqOzEqs09/eG7XGq3wP+y7b+Ocu5DgG2NpDGnV9qN9DrlUFTWX33PJiX8i+Jt12QJmzARheSv91m/ymf+RXuAfOLung/KMbr/LECWa5JG76vFxoBFus2G1eeik2Ecfrc3tnay3c6uUPjiPEubPjHg9UmbwMTQx8amJNIWakKs3z77+r0PXu/gA2f0JkSDpB8offwffo4pSnNVNBh5AgyD+cG7VTJuBmH+W+IM4HIh9U9ZJS5Jv/qPHqdQz9F0Ya4mlbk0XENekj755qMWuiJrUbCFvi7lb7C4PhLongTGH7+MGotdkuNeHK6+41pHdxeby8E1CmIlJq0uuriTcwrm1Alxz4RMejvTHa7wGR5PBxxX5h+ID8oVgAXXZ4OR1R0HjTAndfmW4uj29D5MBPzHF0xwH/IXn953HSuceYNQZoJyI0AcQvEC01AFK5OF4HS5b9LU3Tx6uzdPpwIH4s/aSv0u0qu/0EdwZsWecZrpPuLqVnRF88PdsTZ+IMO6CRNDcPLRmRuBmVx0ALvELlR33D3Xh4aJBqq3tHsPZ8SOUDszi6RZKFzIpAkv/H2/qIrmUC4u64hG08pgLVicU5GHZWTccQg7OllU2j47CwHDv71Af30CmTGpIaGfOt7Q3mzizSlaKLtccWi1Tn7GrvOAnmSUA7OiHBwAfJMUn9Jp/dbj5pFfVl7KJ89GrErh6jZl+O4o5BZNJl90cqziC+JvRI9TpBgUx5li+UQZcR04tGg1ZDtqQH40je/KFMEb61p+4UryzId2OV4lwkLLbuCSxC4CTdqW01AbaRoBjPLmqjgQNDV+O6ZbAHjlmbjJ0M90EJJfgZAXjHcWf4TPVYFOJB3hWEFzhIDNnkhRG4qhKA2zLPCf9ukplRbPIdJxNQVj14Q7SZerrMqlCsrkJsAMCXysFU080GqhC6NSot2CL1HiWqiouVLpZfN+47Fff2ZelC/HKHxV/otg4eGuS0CpdL00SCxGJCUSyoHbi5XYzaBgt1UHlqjBCLXAihZZR1Jh0QRnraWeqQk9lwkasE6qF4tnGQR6D8GK2NU37Kahm0SJXL24xofqsRvSsK+eL8Xa5K9S6tJinj6dD8aK4srx8eE2YjW3ts3kGrP4tA2Etr+0ArFjXQDN7VCu0DZ3lSSOgEikCXNTKNDJBdr+PDy9HNJFI3dvyy2LVZCxZtPrnvZtzzQ5FBHQ174sI3Gr0j49ACHZjhjYJr878V76qz1V3tUeTwg9Wm1XPmJb4+mUXGlfVYOxrzoKXFSoaWyZL2cBc31GVnVHrCGAvlUhTXP3rB+5Ap0EJs3qZm3I2aSoFj5IVpV9eF9AEBTO0HG1qAZKarBeSZpIWjf9irHXdEYPDv+tvBINzy0Jr5hO2WtkBXAAfEX1sHHm5vK9R0i+hN7ycB2OEJYUBZdwn1et3fCOBoq54P9rFnIQdiOoky9+IhqQiT4SKo6HgWZ44CIDpu7K3fjk13I0Iihtnh8nROzahNs+sm0XFBQ4OXjbIRc2tSynahGaQPasfyqxWeSoG/nX0+zf5+OCFML6uAWGK2pbYHwWJr9Q5uOJgkLIUTYi0HhCyldQ+S7GrgFbIufUH57qC01/Gei5QYRrU1lroMxBYo+v3/xsY6BzIZqqg4tNA1CU+vOXsrgUMPdj1pRIIEngGheKBB7VDE+Os14o93DMm0URJ7k4w7CwugN9vufcabLj7uEY2a1ngewXnAS6zcofh7/fbLcsbFRk6U0XVUy2PLzWHWF2TwxG/xrCzo8bvvZXrHhuCezKNDg1lOWvAJQ9DdI8IOeQcLsMVzgREua4ygOASrTdcHmfP8hdd/PVlbLQ6avQSH7grqT+6Lm9YNBpnCT1USWsMbaUCHTQfq3ZtJ/awcHb/F18vSxxK9eWZbxbYHU+gND7Fx4Ej9wX/AtZrJmq3lakEymW6Z59ACjDsCRsyNQ+Jw/gbMNts8du1wd1bUoYlSGouCb5e1nTrkB0w7ekSZLi+LBoJXD+/qW5UF48on4kzecTPnI1VDGlWj9htW+yiaiho4tF1rfZELRtvFLFTt2rATLSVgcCK3lGaw9d0Ovjz2BCrfl3fsj3gbnDmZR3YTcNIhnbwFx+Lf4G5yd1mJ8wYJUFjflYkHEN832r8gZ3aS15YrJJ771rwEBxE+HMa1Rd36tNMEcIxD3j2qRMt39e8QlJjKS2prA9rH+Bpb4plTJjfyRhn5j8J7chLnEylaEwJ880bTMfAVQDg5Rd+QikUtuX2pJEni+enEErAkZM1w6XhdoHCfXb2bgGj9r1LuzseK7GKpXD2hEeRrx42zkFgGj5l+QEECSvtge/0zbQwjceaq6K98Yt8h04ZAeJH2StGy56FkbbEuanXDwAYyF2Myy4e+LQ+RjpOny9qXf3C8zd9HTpsCLwmgKdppoivDZKTHRoEXA6uqd2KUOCJqhwQwcFiSc876OT6YJUgWEDTil7LybfDFUuVO6x+6BnyBmsQYyD2Kyy9aLwY3kgcZCVuqpoYNqJvE28hzt62U3uvqmfI4xTEpL8FXtF9IshphTV3ILerIaI9Cxgtoy318UMukURAMAnKBWBhAFAjGkemJ10KEA0K9G5ysTzGG8tfcKX6VhQ6x9SvkwSuzCMRyPootNuaeGI9ZlzhgZBrfp6uu4j84XoAnSqOBDQPB9XFqfvOkD8guNQRfqeuSPQ+A91pvD5sakLmAo3nER8ijzjv3veJWn/C29ApPGgDn5AHNPeh0t+w42T5jxBPqqRI9iKKbQI6WRO/+82GX3H1bUhnVc8SSPYKgmKBEhCFqGvu2LGxl218eYVFy57uUAtkWw5Dwr8k5TgB12JhVt0gAMMSHirAa7frNT8WJDgMMDRPf8+HXPGjxJut8X6VRg0yBjZA/R+04wpFxKRkZstC+oPYKk7BywU2yCGQEsWa9XPIqFuN6FH2tIqpe9vfK2R2tyjJd/Q2ITiUub8RnU2XuHpqIKkKDCg1HakspL2H3IWvM3txMDvRPOT56ugfeOzmd326zg1a+VhUbJtyEXNH7UvaUgC2GYva2vUUKJhn6noa2cSUahHcUNGJB38yzL5EtrOyfqkfnzh2eLsAutXuC1JSfKyA0HBgF9KiUqzZtIN3N0ydGrnVTbUbkRtVCFpdEET8EEAPepVt9pcavNRxTmd7xxesRV7v+h5TbMm72prdtj6AFpAOoNG/32Im4OwesQz5hb3WBeRwh3HPZLuHJQ15ou9HDpvkeGaeBqAjEIDJCqIvH5QTsRjoV6LvQ8uXc6B7GVXAH57/HzAn+0bN1IzgPd7SwhxqkbIsCk7U3vj3qobwoXz/FZSRzSsY/wINW7fXr6Vo6hWUGQ0/UhZWCJLDSBoWkaYNrVD9MhD26zrct2l55OlAiTVzrgovEvUkbgi9Z7VwOz1Rtbb8cwbQVUT/Vnja7lE42ToRXAWPD6ofkS2G8IHv5XndFB9M+kgQ7FGp3KNJAIqLLjsIh/ZcaEf+s0vPRan1iayZlWhNwZ1cUqm+AfM0ktzmbe3feuUk/LVKMk+hJk7dqcuvRFcedn5N4vh08WFrG/Ko9rWuu6pNOzq6/jvmBHCYSnED6VFRt5TvfJvQomWiQIEREGYzizwyVG2yb7eVw5oNu+F8Y7TgldrYZcdyyi7cnvz2bIVAkWRuR29pVOEfY2/zv7RM3WCfk720tSFrah48TMnqfINiKPTRdSVMa6JFmeswc1FzxXoEiZP8IL/+l54EVp4MgJM4ilmRiCzOTWbGFfukU/XP/66JS8YIfS5xu+CtaD2377LZgK2QLUXyBujoakIZ9dm8OCsoWvzpxBlqzfTNOikgs/hyWG8jozcZcgX2Fr+P0P3I01hIUEWD9SFkWuPmqSi8otPuE+umNihwQWHxuXCokwn4pcxCfA+w7+97d2r9D5HapcskogAy1LFlgOzgF+/S04S/GM62bbIvXvZ8fp8PcNoei2b+OgRgM341dFPrTxxWLzvuHTkILR3DJWuR2+Y0ZQaInrI2NO4K/dicLoYMgnEz0xL/wfv4uEZVU63yje0IDQoJhN540vz8IBLZwf7wFUURfFA7IsrYalL8eJpCnNaISt4d7PYxE8vIAYV5QpeBkl7UaD7Kw2TpoeLoCAX4NiSrM9DS/4Y+imnlsDY6T4Hr2MksuwuSPC4Ev8jkG0rZUl3Bnglp2f5UjrIEq5ACnk+0N2Wypmg/FpP8XW+8jsAID/XXnCi9iSzshAYgpNqolCAvG16fDETcKUHCjyKT7CVNsHRMocznb9aWz5zu/m67yYgHBeM0kLaV9/xV4yTU4eTzIbds4G4h+VvbaYc7oG6GyHC3ISL9XFXjiJmo+Pw5hgE+Si9pCLLNX+Is0w/63Pf/Ek9bhYc9tIOgk/PglhNjPpWw18CV/08L/2vCLwVTH/CLq7CNE6VCU7cJTufYv5lk8pjUTEAzbo2C6R6drLfh8XmaajB0gPQihWduTgWkWW/5bMN5k6Pa/XNvUmMHDhVnH2dmz1g0UwuLykFAuanW2GbIazzc6Wjy5S2wewp6ZjrzJw0/d4TrEoxYKQBl6ftbH19LoaGVyfcSL0hT5Vj0izHKjNs8/owR0WfMMCdJb+NQeNS3N1VRHOhZtsCyYYvei/jmiSOHA3W/ybVtjmURPxVEOU7MaiMcj9JfU0H4IkFXbwmLMZoix1YSEadh4n2x2VsXfw13bbojeneLvFyVkbn1TsRQClKOq+VbGV0BluJOBzTS3rSjdiPHPEly0K0TVB+mRDAXyqeARtwAAPaLuvPn3llW4OqI2IRjal67xd8jitlQD9mUOzn+QEgu2HTLM3h54xXkLdUSORTobG4j5Z5qdLFeMLrTC9oCzxSDQuHKsSCEGq4FYeWsFCKRJgapR0zcEWgV/EabRkXOARceRYO3QQvS9HvdntIw+hm7I0yWv5jesb64gmKeyp7Zyr9CirAL0w7FHEN4Qfva1W94zPXc+8wU6E/HrJROHV2aa3GdxwNa6SiAQbEC980Wbm0vMKN38d1YDC0ZEgKljy6aCxwMEKhToHPmsWnHUI5wl/vml/EuuZ0ZrafN651p2OZtber5UTpIIvS5RvVLtXbYN8AGLxh7oHNk+n2cLQcpRBIAOB3gM6HVnM8g5z6MeqimuF+6oyucDpz8c9Vbc/Kl3eXsc+dTEDcFUYFf25DpeX+TDK+pjwhF2XLs7Df7mdZxfhbL+UrjdsuFeJeX77t1HsHOzStyQlotYzp6qR8gheZsBl+/9c9tZf+q6HtNToHFm8rGUQGdLByIjZxsHl39Uxcs2BFEBAef1LV7v3AG2rCle1qYPo16qG82eHrK0EWb063RETVKalADyPRxmWnQMNJForPImaAkf618rfTm6OsFgfCcPaWZ5ZgW5D0I65Y81JD+NdtFCN7QPu+43v0JrwR/gKs+B6UgmX8vqAkwiesSeBqylGrdzwjiWrJ9uDBqamiAIfdGgldhz/zOnUmFfsypirJdZuEGyNl/Sq7UmafxInnZTo6eFy1M62NKrthQcatDKf8llFM4My5q2ju+lZWRcWEHAyogFryhcqF0Hf2DkpyiXkfiy7xSAaqyWn+D/bfJ4x1gq0/UjBH2iCBRuK5fS+B9q6JAPT9m+N4vg17pG6XGZcbr/zqbSELayQ5prGwKa29zCdrNR84kld/dHnh6/gVKN6A9N9dScZvQHtrNOAQVtfNynpKv/+/Vf8KOf6XwRotIyyUgTtvqA3xbK1zsKKZuc9OwA8twQe7N/dR/RG9nGhuSU0mD/Tom4NRg1/9SE53D/FMRaVjvvsmlkrLuNjs+Vs73oe4Niaz869kPkRb5r95zJPqy/ovai+TS5oPfEIVWnNiUtX9l+CppBNJnXOeE9hXSaI/pZctrC4LeM1G1Za1+8uGM1kIqTqLiwADwXzNV2o6ACHMV2q5yZMaso36nviV3LiZbCCws+6h9s+e+C8gkKEGNgrQ4txnfoKmv33/gWJXi15OJjwAAAAAAAOC6g082OjTIGCl/CWs6xINnEGGK9J59EClOtQV7gtsQKKjiO3zrRV0CgGIDdKb58cQJnp4lu4l4mT+Dw85AyQIwygQbLl2Dh3zx99Fe6CgexzSTOBSn+DAOX+XMq02HYJOVmbLKUkxLaXPLmx85OOO83Ka2WglHMdI5wdqvD+11LvqbPI/t4o+OU39HFLyHEuSyXWrXkbXc5LIQf/GSku5K2h2LfFgdzi6Toi3BARqMSxTfmVnVat+hjXOUX9wLDmzrnBk11Xn+dcMwrHGekGTuWatkv8DJL79JVL9DQmGyDMmJ45fjs91Cv1veWs1ZNUXisf+keY2qnrroTotcLXRzgzl1tgPeM/9EkOonBaijpbLU01nSAJyqOm90gMnS0sce+dzG6py010SDMN/dxtKYcHm0NP2uEfpFX1jd3OIHOq1C8p5paQvUOz8NG5JJSY6H5XUia3uyT5oR3O727RMX+J46Ajx023E0doeUX55mJm2ikLKh7rBw6QJ5AUtaRdAqMIUcQSTOefjPxxNkFcLP62+iUlJidoL/npR4dQPibA5cJS9ApuTW7e4BtjvvQYKHcdmtvNc9WPGJB17UxVMrAzCNAe/rNzPLZfnbdQXeiun+UKGY/5iH0Fa7BHSqxTq1Rtu3xaBswkSRa59b0r8Xf5DfLohS9yGI3XIf4hYfn2fqVR4hTS9/SAaOn9GleCKr06H3cZH5xIdDk17vp128/GF7T9z20CONdHU+oY3xbxlFQzid+pm4SQCgbPXjOB+cFhme+XJ49Pv6m1MPPVFSwvkp8KxxYcMbbMl9eTjhBxq7OGVTkyobHAeaUVFAz+iybv6vfV1FOqi5AUqreN5k5Ypwy7r0MlRbcaT5sZ4XE/kdHW+3WGxXrYjBZhQrPtj8rfkEKPOGyG3fmX2D1ZuGCAlSBlGjKt+TvWjhQHOKMFEN1o8Yn6vUBVWsmLUm9GvUpOnzPDUIws+hBIG6xjIQWBqSeroCw4xtm1elUAjWllP7qaNbL+GiHi4EG1YjWbWn3grSGgeNPg6h0EYb/Nl4kKHyDkiN8PDMw9PMKs+whXgKq5ULGGBVfpqcjTGalsTgC8kO0BhwBoX7vYY6EPScFZai1mB/YSjEq1dpk7lRVtqewq1cfYl2LlwD6MVESBF5F3789+W2ZN1bFXzYZpKJsPK9+8id1+ZPlvQoXzv8I6fJ+C6U9PyDJtSnh4eB5LDr7ahNNSi8cbOGhQiEBMBoUTpLTrMOYRddFRq5tYILGoT5Wq+ypFuBZN0rlnnCOOVs/Q5p4XVOUC9jqSbKZpdtsNf4MrO1F6Yu6ZfE/OwNKnkpyAbPNF6MfNajltNQikEi3rKB65XlJiWxZ0rxOQhh5pMJZdQFebpt3x5d9No9hRHii1BdX47LyRNc7DzLc874gsYg5X5DuBFs0c7o3JsQrfMqI0drfjD4w5tANOqu9Od+tTc4C+/we2X6NPoP85ZIudCEWVpbdGjzQxGRqzNelMLd0qoAsgjlZyMtoLslMgoNm2w9JN49yKDERnHHQY+kUzXnlBM6YCSGAjmttP0mGUBcZN6UNPN/RSbyEtvzRZ6fO4HvFsmahzeDACVS5ZAzq7DHfHrdMHeSecxmbhooSehYdwu3lU1htBUf05HHXTkn8x71111WLsx8m3QXDQI01iiC9xjy14b3DYl7Y8br9AFxeXyhISXQBc5e2OhgTF/Olt8G0rvBAP1M6M80VHXW6bA5w4E8HSeF9fS/EIeHhJ3OYnxmVQpU+VnfArtpsomLp8S4GS4m2CWlTDomtF88ZDc4UfDFRW6G1y/FYPjfiTom9DQ6UOCzDEAFDcYbMnnhy1gnUAIkdVYtebIpUnQV7g1dGytjZUsEmMSWUES9OOR6pRpvXW4aNsZJIGZm0Rxbwt3z6+36oCp4y/U0L8hZh5/oIHDBt13QdZzXq6rGH9SnsaoOWjQPBQWVcViAYT3WM4Vyyja6/cYc36RGQAVS9KNzfX8gf/F9MfBKa2qlW7EKzy9zoErrn93CpRKi8F2el6P1oTZCj9mo0UN01SUNHaQRTArTXjhYins0EgiwxfmilBtvG+AbGdBJ0g7vGEW1GjlrTStf4vKiHnikrJWw0vM253CH5es++D6liYrdkwLWEExyuGnysD1FahjAF0WGQCDxBk040PG6ZIiSJio5A0L0ExlK7e/Jqp8XG7+NpXV2A0yXoo7oBcXZU+4ZWkzpJtEf4CUDASjJy9uqgI6qy3DuqTfB7obuYisBBH813ThHdM3K1NPum6eoDCiUE2CjDabO0b2XbEDrwI+SC+n5pLtKSONsFPUYZ4aup4/yWD+eC7RgyUszF8pPG4lAbI0dDCXSzlaSG+u3CuRuI2j1mOQ+nJhp28kWtdxEw53W8zLmL+U2evZ96Q1Uy3nbP6gohhDTwpY6ht53jVo0oWxIL5NaVeLPp5V07LiV6VuextQiE3EEZ5XPKeeaSm9oqmEnWsv2RYi9qHs4H83SM3cKhBn7smIQNPEjBwa1Pj71P6Dnt7osyGOVGmgdQH+vsKMv+YSMgJ2o+h+eWB565SViHcwP7UY2nYATUF2SY2bPbhDAvhWFVOtaR8/zQyHvYPIndYd+bqgnuzzYfJvzr9eYtzKTnwmtnPxf10MxcDzpZ1U95GW+L/glxlclksiiHwbO9RWyP6UB0QErdBcd6TpWNWB56E6eRYvQ6fhpS/IRWuRutr/l4iDY5m/dNqKG663FVNVCeSdtXilLk2obvBExxziEzDX0ws68uUZ74K/y5VHYY0xZYKv2W4gf/MreMaL0IJwc6TySMsXv26AaauhRbtqs3UE6Z6LfIrUEH/mBpThqp8Js05gyVF5Z5+Ax0qgxhX7c6Z+geSGQEEx2xk6i3LBgqi7PZlx6PgtXSti+9NhfH7z8SQmmg1N/4oGGht5bcmcR3fyE1wcR9fkkKXNB5hwf/aY+xmc6iBVzQPg6RoPSA+96mtauYJ3t/s9VgTFJilqPYVXfSOg6iJIKtfW0YzM9CmGLjqiLAW2r9gascA9vVqQjoauUp91w5oQZ3vMkfHdM6wZLnp1foNiN1vBOWy+8nfZM0cy2tUL0pU8K+kS02x+n5wbBL1x87ZHVVQfpl0an1MTenSWmd30QnJAnSEBxCTMBiwKodOb4SW/6Sdq0CMesjW3lp6k1aqGFDKVsXEgZY2vy2O6d/MEIL8tj8VRiddtA+tUVtPr1mvcVDfjnx08D+tnVq18TPtRLdqHsh8R692UjRxNvNkTu7F5xqiXI0iQcR7ozmMKnTm7/ab+aya2/WA93dpLFRhFdZtgyKgg11sau7Ie7a2Uj/i4d9xutDa0LRQwsZJsQNeFWIzCp2Kl6s93JpYvou+YZR507BYYlMqyk3rce34HEzimS8eNx5Fjf5XjX1Z4baA9Sx1CBOCvpeX9MKJYDKmIRZY1x14OX8fgbTIuvyj0dIHse5kJzIe2fxdq5rrl9qEcGV0a4X/o9L1ok2+ruPhn1CwSIWt3ndR0nX/JYNqG7PwZ+xhmYv04UHgZYDK1oz4A8bP+rQBoQCpQ7KirC7tktT4GTRT8FcTI4kI4ijJLkuajd2OqIWCQWheTHCqxfDUp+Hbf6lcMRVIGzmVSJNgbWztQdQt1aMw527vL4Zlah1fKfr0hW3CJ+/tO5O5NPCYjLfGwTr2Rr677k7Kdx8IbBGDGXxfiW+hPK8q04jYR18NLkehaKNclN0YiWRxHyyu3wpN7Bnfo6cPbAWjjM1AeoD3Ng8wEVtG/ZhCBcXkMhfVeQ7b9MR6d13ClmmnIK3f90JuT4pTaJ6w8wtkH1F5yBmk2h/IcWeL13yMppyXm4clPiWyUYZOQP66tZl/GNe/SIrfTmKlHSv2F4ONrgpGEXXF6F7D7seiFeJSlszc9JLAwLM7NM6lvZpiJQcPpag2DpAt+a79eJ+6Q39nOu6TgoZI5nl/GuCUNXBvCaA9mjupy8FYONc2/CYXniGzamyBdQCV4ODKb0lFZKxAepStOeWWzYLPLxOIdV3NKrPyVFhNOejDSsIpq6PpGvc6Qx/i4y/9H2RCV0HPyJjo/ZT9wWxvVb0gUuOqzMbI6xfaU/ov0gLFPHIKMmfAW3MVen+NRPUmwVDl/3gUg1WejOnwrd6YkujdI3fUsspm6AUIVFdQQfCXUzidt6DBljU/+CNz6vWV3ChVrr4gXaV46IaRnIzyyd//4xG6c+dm4/QHsYHGz+2WOn7LNkNCpXqQbujMK6UnS7ofKG40Lsh0ttq1ra7W2fLmTyyVAJoNihGSoWSW7OHuUb1U2gr+EfBpN4nPzCmLrvfy6ta6IDsMHWPNwY7LxKTQV46f+kkvW+n0+cxKWAPNZdRo7Z9415VzfIpdMYVh0f5zOgiHKlVlyb6AxRKHb8LInFom20HX5C51QxwZtdLfbQqoudHOueFt95A7oOjGBkAgyvFB9Htmqb1libWormT9xw6jngOh6NjmSGQnqQBP4y3AprKslTIEU8TMAmXsG8AP6+wr6rB2lTNVmgSpHWwsmPqLpmPMu4gtvLVKuMO5PdLZi8+VsNQRqKnJbCKdH6v3NxqtrT+f4uGux3GRc4IVQpKwvJh81sA4TCOLpmpiIGn4GKUZGkJ4GQYxv1/P+I++jGa8hJPACdfKyWG5Ea3p9XA2VqrNTsksuaGjjZbLs1yxcmDKXZuVNiKczea4t7S6z/O2F8z0Auei6WU6+n+PMJezeVWLHJfoQAL5NXBAI7Ktsj51L/jD4bnYCdVDM9M79Co7rmWCugE+7ww9iP3BvCgN8Gtbc8pwBb4K4FCK4vdiuKN1RC6dguXKzNMl/2qdcjnu2aLwsmauKhES/Uqnj/ikKmhrcHEkUHNIfqA1TgmPdxeRdxu8FoN9IayHseKF+G8IMPgzIZxDN0unKV1O4vHH0qIHxmdaHF2ihOiEnPx9J5AtDh9aDKLQnFOgCCiKfIDSVQQTMnMwtHx6diGHAcJIr/sqgCjgewS+DpA3iW3rIr4UCP/M3/e6mavn5d02RSidqX7txh/1U9SfjJ3NLJQoVvDpbBv48TW9iYq3G2ddKNQVbIEwrQLLaE9d7b1OPQh+RlQjcugoX8R0QSCM8HJhXrKyRHGqeLXvzdb8TkMGz0nFR1WTgn6ZRvKmPZRFRUe1t2Tw81/N/+ks4KfwJw7AeJGaUKqxEs6X7YrcGxgmABUKeMI2Rz7CL58O/nVwocbCf+3DdVokRiw0McECJglSFOq4x7/rjHdyx50zkHLzrozRtmscEgfl1rTh1b9onhn1I1DfYp023lViBQR1n7PObEk5auvr1NmAD0ZVjsIQsArstm+E//sWCJ7pY+zutchbz3scAzJmppBrfjEND2H4x0NuG+bv9v+WyoA5k17v8g4UJuDW84vj5eOqxppmGemNBMsiXrSVlYI8qWY69G0dB+VcvDna2f1rKeowT/t0GpVX/yZB7qFLCGWGFi03cY1PfsDc7sZ4MODShG0Vz333fjzL1RRjd9RpwVX03ZFRr2JFiQibD2Z6ycYq5EQ5Wg7R+2XZrGkWyDuonw0bPTtWWoqX3TR4Yvw7LsrrdEir4DDhoB3jaRc1SmiezqLD2lAbJOb8/pVKJpqw36GvW5rFOBNCggoeDeQafKEyPpX4R6XAdEshKLMT7DpMSV1mh/oxpRnH3kj4C+YCHAoXFB0KIMNRHaGbcK1UcYQkQfipR9rbtv3mL4WL/BnQLz0jE4t50hoxaiu9DrUe2zsp9UFXPR3OMPOEmxpjY9CQvFMrUuRm+s93oieqDHeqsPSiA4GyqdmRcAbp+D04zrmbdD5iqFpNxoo8p/yHO0V4QwfSN+qlY2IIgRUsKjy+ux3GnP4ofHEOo1RsoRsjiJCYL6sYBZmKIOfHnJPMvwbk0uhSRjP7vVKBRz2XqOmLotUik+wQFQ2+x44+bNqE3X5v/fAldV+ZqgqXs1LwijCgAMt7Vac2/fGj8Vnx5UYqXFB3BVqU+4y6n2gRJtA9D3/u412an9TSgzNRDfPGdtBFLIkXQzBe1Mn1Y4oIcgDR4lgRXYWJsW7Luu80vgudLT1FpanLTLUzhSuVK6DwJY0y8X6CcUO6EXVyBdNNQCFVghwoeo4lv6ptPAXMhPza9fG9Debl4bc0bfRsKPo62awU7Q40960fHFBRXSbiIUtzI9aF6e8ASt5E17xCKCsu9xK2fO0yQmQDrTRKiJt+t8Y2JKttA1qksRyg0y4wSvOPV05R4+kAmKHn4SnW+oV04Tplsi8697x0XKk0Q5e+6gdbm7PMz3jH4gYBF+9J3Jy/9MWij3iIfLH5jpl3IAWi6iwXAkqEDGaDf3PaGBEUnIdQpZPh5YiIw+f/euwK53drt5/Spd72tuI7FGuy8DQ7CXeRF22Z6ge/dfY+Oll6xlXm7NJnfBWrFYzF3kt0BDSiOCkCHgwh5VCiypqzvdUHt6FbjigQTzCNmlqWAB5ywqEyIpo1kzSW+1gbGSz+OJkEE+GwbHg2w/eYLmvum9zTXgbALAwod74dfFaG0MA6MakOLTC7MQgujBJzMNCZg7VjMNXnUrvnYlj8ZNX2UluDfMfhoE7ae1tZ9Hl3K9eivytzjG9tpk9MJWfCNY7Fs8ZVuPppHWGfLZYgZEMwG6h1weRYp0N1PyjaKqmiYyrESGrLuHnZz0ejTzj5pJTYrj3NqtQ55zEiFJiuKdTufisYk6NqnfmPc7mWzqV4fNsWNKAT1oEg31aK8RPFchb7Y0sC8ejsDO8QCYjbCQDMiZVXeoCBavgdJ7k85fqo3hrKE3F4ks/4bsO4MVe0HkbqGHGm9gYguYc7KnzGTv9H6IFNLipK6udQpn/LGKHvnozaWul9WkpXjMTz32hZ6dJLbZfZ+EK0K5OxiiJ1Rrfdmsg+DIIMXjPdaIhsTz4kQLcu1c1aMey7Pg4y9EQn6FNZpTy7+mDeYE2MSVPpfCUi9rYRwrl7/IA0KyoocsavpKcPKeOIa3tlDRRKx+VPq3R9EAkEcIafo1tIFyzTQ5uHS+GB3c4YowEP5X0OFapjTEuJiAzQWoSFD6N62flYN64gqqjGrLSk0gzFQFhlp4WfjIBY9aCMTIShuvx9zrwVmJvDaboFDGKcnbMGs/AOJoJUfRF64muvb/FuBbmZykW51u+Me0hFx0/RfwCF9XFhGQEqpANkd/a5AC23YsbKpMdr58H0KVwerw3ikpJAWrbg7P3dKnc+lKHlXZsX+wODij3cwPLTdC5QmiVk2zFR1/k5idZecCOCl0AlounDZyMgfdgXr70TvPUcrIZA6pitAd30+8og1ARAyaixbhdF7kfUxJQWW30/IlM1fwhuE5zdmRpC/b9H4RuRQgHs2R9xZESqxX03LELPiMrrmqrnCjPNbv/0ioN++CFM5F4OQXpMra6yuOTdbnxn9FWDoLgsPedshgYwKZATOGYjkF1dsRmGTyYt9p9ki8RrOEY6dcAlDlBxuRvbXMjo197Ec21QGVnhN0p9HftVMZF5uudEgf8XTf7UYtf1awpwDtosBZPyBJNtfCSGmoWAAA19QS4v0ZG9qq4neyw7kjPEiGmIRNM2keY3gUjQCoic8FdgYYhbYkgNXZNFzN6rYlJTXGvRbleiLTd5/5K2dvS2di1o/EbIfw2cl1y/3LrppDxevy+1HU8u5nq6d2XOeo2qyreidF1p9KO3x/WAGAp6ojg09f0usqEQRzxENTw1iOywkT+Ryn7YFNkOIOF4Q/CCIzA+imBFUp7fa6BmOn+U3WP/pEmDoaUQNyMZ/Pb1LG3HekP5m5/1abBaU6NyVy6Uc0eoy5rV2l85nW43XO3bmft60StgTtGtGk62gUakOiYMBahYn4Cx7Ntpo0FTCn4dX5lPiBSUefgbDf2yD2Aw1SxsQqyFNuXd5sFZN0FDVepNfWdv2mAxTON4DR/JkAOatcALnGjk9QeuJc0FOCVXrFNamVAyWKByHSSyOEcTzKXDSYZUgYPOvY8ZcWtvz/1SIQNaNh2VusaQCWHzS1WatNhpuJC7paUIj3IK+lpS2SlPrjWU9HAupB+OC78gNT6seN/Z2m0WnotQnBjetxTpOpX4TCqkogtQ+kvk7316qxnL+muOYKqDLnsa2Yj+iEehFnVyvF6aAZPYypskaSEUb2gVRHEcmNuCkcFfMSfx0yJGNeEEApn1N7oX8ZfFuomsEat5rdTT7vGNSG8MELMYwnskkO+YEPIPy0yO+zalV1KBLHqhQWC8Syr57utrdJ3/HgyfkU6r36VIjWUO0NOunBBIkrH3J9jiU8UPPOKfW8qThyEOu+13P6c3g2PfrhAvwjo9LoDkmUZnAY9zqVWPGK4WAQLoHtJTZQWuNJawGP0IG7mVPzr9wuoG9GpLtbwZLsaEngGTdAkysIK6WT4W5gjwnlM2ZYEGJVCBIznNhnxLELvjYJ6cpetf5bAecvEnz41gXqbYKNH6WZcFbUt0LTMs1/MTkmGXh5gtBTycHRgn4IVLyPywpMVlnAmfFn8alRl2ZrJfpCNjhL2aGlkbK1soMkpKekPRbUpUswZhsEGtXI1Uv6FCesgNZWINH1l+05iXiKcGRZmoG+ujpekp4fqaxZJ17tb9IEypiFbuhX+raGVTRLHnb8lBEtjbUilng8ElRqdJZY97B3JXQkmcWBPHLyQ9n29DdMBPWXmD01Kvi5aB+2Ob9okjHQFotB9BYGFlaaKr78t8PIdPem9LEJC9mZ14ZOBGOSG6oQEpHqGPzqkdlEhmLRsS2pP1Q/LlhDuN50yXeli9YNLgb7yU/1nMk3YAJNYCpAPmjBqHpdpkVWgiThGPCdgjzJ8tXFIcQs6K/TG3WH291Y4o0q2+I5boexs6j5GxudERAXk8TFXsuyn5Dn026SZ0BOgiAiaX5CjuWZ8KcrhrkaTzm/eZNxramNeBjiu4t2Au5LoC9gG0ULHm8I+TBLkoQLWqq1g+E9si9JPPmVE/D57pcFhRVn8yG9T/1Tw+vE7ZeC5I2l9DuOXBDH92vrwDAgmRWY/JEDsSBTwT9neOQ87q79hElh1El+mJDyFzjOsMoORXoMf2Zy/5Qz6lMMEPQpXwcCw+hukKErvSKhZUFyyLVFwXFAyZSjccZEXe6+rGgLmGfyNoyFCQWNS4rouwaIVRB5vlh0cXzra/EkZPJaFgaiNvDfucTMS3ucHTpnulnZF1tOAVRHnaBKiebJWkD3JzS3QSRhMQBvGqnp+mCv1hcptmK/tc6j6MN19kl05JP5dWBlHArsqr9SVwUrKmgRIueQxFV+xgpEUZwi5B3tLbyGqjSx62RT0NoVrIvVpLVuZ8v4JdBu2LbaPa0qDxFk1HcwwV5Pa9tuUO6X6SUzzsISOFevZUeOcN24P0NI8AdHCe5NmzXFPooLeeKhGIhEiAdoopqHVdaEN2+EXgIhL3AWwIdB4h2wo2/xH3iBKh6787eSfFWxMOMzFIBGfISE/8M1Kp3AF4bKjhVAnm5NMi1mxSa0ciBAuayux6sESRlHtE+NPdHJkzVy1pjSpxfce1YXhHKuw+kn7vVwQeYhGAAhN3IRLvmlepQeMCA7gMWIYR/2rwj4VlWk3MnCIawAkWYoZvcrG45TOj4qjEKFA0V0DNSD96B+b1Dg5qOvFW+nwuLMThwdwzN1m1zd3/TFnjZd9i2SAmZAqtEPdBXkd1m6FJhty8BGXXJ9loESjCZ9t+XmFR9CflOuHF4+y6EnZx2GXnqfC2jG2ssuQZJu6XyXNDf57Dw34UBUm4wK57HqUvoY5JGyfxwCyZJyUf0dMpjkUl+fSQQsj3YswArZ8cuAP7z/+14Uwx6wmMvyr/BY5aE6mHbc93C2b93ZerTUrcJNz7IDuGiD1RC4V9dVCrm7jXtHkLkYd1SdO3B/gE/LDQmCccQQ0/UP4kg+1eopjf3SJd1XV8oH8/yF5CmoYX6XWe0/lhJu5E5mkpfNqRtbuQWpZ6R3jyKyJhZZCRCJsW3d2Kn/10kNF93vM/zzWLF7tiQT5Wh+lwjbzC9qM2Q+oMszG+b1Go3a5UqioazQawgmKUCVJh5I2ynINjvvswlILkX2+GC0uDeGfdG+Yhb4VcJTG661FVRSqnkv7dio/8fTJ0JEgy3Jdjg2yF1waEPCQbQfY7/ibjkC5jCR50U/bx1az+Qm5fQ5TnRFyZES6Asp7UYZwbACQwhWV9Dbka30aiV0GaaSS/njXJYs5AHkTOlrt7WnZ5rZ3dDDq03dsq9npVUnY+4G7CvJeB+ZN7WuJOD+R9s+52W4BiILl3yWaKJ7de0bKOtrbfRajfe6j4hCucX9+HY/KwjvZKSZcREJBPuaCc1XF6IpBSJKy1iE+ONartTI3NlVFqqHLUtM37AwdjBKcwJiNJiSQDBk8hcd41qHobtpMTDBA+MygkV+WfgZq3CuBZrQ2C3NFUt23PB7xJIK5pI1x7XuFF1buigiyMs1cWifi3L+KyJ/uNjllKUmo82oj0UWFRLSUEuctlLhqmy2iwW2HqzkyYsZTGikJvXIevLzqnB2Vp0QLMlv9Q/I2X/VXhNkoFUnrYwxjd++5RgDWsz09N3S4YaAM6nNvL8TTNtyWGj93uH7ODsehRANb2v96MWFgf3Y7ZsCgvEF0CcStCYusqJRkGbl0dG7A5ZoD6Mm8ephUvXj4IKidSb8QIghiz0bBXyGWL9D7ErYUmYZP3I11FrNIoUJCE2J48EcLJ3ZroRo7U4FsceKGBH/HkyEuGVq9jSNG3dT5OAlyp1BuzilP3LlIHCiHgQhJ0Vrtfo5K4arxdcVVDfpVT4+HX58eqUIolfoH30yVNIVI0VH8U3rnjl6FdWa29weqyKhLCv97tT5+MsxXMGPUBcsFZa36ptAG/bmfNnh8UMPUXwbWN5P1QOU+5g9DDEQVCMu534sb+a8lTnSy1X9CFrOS12Xgm76IqrPcJNYF2snsqLEmGWqa6eq/gmiP9Xd4/kX6kydYAZ/kgyFItF5HejBgEVJwOXzbC4PAj5ENUbYCR6JKgcroCJG4lbvmDWre0+erG42JPzMXyB7GbI8+Q7W3G0Jq1m8FqmPdR4mjboV03PEkU8IcOm7m/v1Wvnwu/Kf6/c01hayfEgF3CTX+r28JwjIF5L8g+gUlU23Hjh9jCMX+1Jkd2tq1QnkLZoOJy9WIbzHjP8fKwtjghE3TjHnhUcq38vLfUGLU/o8/FfDW8kbEySpmfjMWZm+td8TibLjXueLdGfvn5tEus+VzE/acUW6jCHPrAsQgegMAe3GBgfAcK/rEfWm7H/EtKmXuNUbhkwUu6SQLpv3fzG0E63wtF5Kd1TLNBVd5aTHMFlKcyS8hObGsAeNaC3/HXBmp3SygLkRldQIx4YdRBCzIVcpyz9k3J76UGxbAfYRpkmM54JftZQAOXTdxPa4WDtO9LloYf6OztwmnPXJoul/GoCI1aTAEDmAM4MqRU90ANfddmE/Tl4+3dQyqBKuyp4tSsYcyouP/8xSGquXL7TUaBzi5iPFdC3NwLhdBAsYWCxWV0LADMIM0uyzlKGvdQynPypKJPrg8Wt7RXhKKj97VZRnHIFD1MDXtA0/lYxaOGU6AQ9ZcD8gXoxIyWe+P0f8lYuKyZchNAEa9xyEc2VChwn2d/vo2OwhZeQEdg8jg277GJI/WjaFLZYPh4nd47LyizAEpNE4H+xfhwEpK1Q3JU9aT/FpNp56rywf6DeqFHu4u4eo6VVWVPPkbgGMfjxFq2cXvxRHuLKSxvU7eKRf6eq/1imPWwnRjFh1AJhAj+ckRLfusatDEjw2MSy09dOqpPzziE5Nb9dfQr/YBBXNQKpAJT4pQ4XI40JfxpUqYXULA9gprSwjc5w5/pgbgXsXUM6iyn4kgp1xKBjCuDI/LRV1Zm6P9163TBLagvylt6pDqgMtPKUH5G4/t7WNHgE2pbmQjXWQm3i+YGBUP4mWM1oDNqwA2otdHgbCFzW988+5R5tFJIq7ryjsPu3qKxvVoV4FnlL9hjuyjx7k56y0bby8fMz4KYbC6V2ylWv8lpvL+jjf9MAlUULJESNTujmWglgWDP8G1l09o1I8YxyEWGMTX4QF31jDUD6EMTZTNmx0VThZWDvNYmIvRrQUscV9r98Cn2LTFBul9kD5z1YXZRgfZ9ipkiCgdtirn65aPwx0Y1TrOBUaa5ttxum4ehEzQFC6IWDuUu4AV3GKsF6NEXGIoefpaLDxX73iGh0k4F1Y4dstbwCumImUJmxALqKWeDUYGCjE5I1z/aTN+6e+4xO7ReNgZeL75immkBK5TFkyYHVFuaoKzllwh+R+6TEFRI3pqv04p6sSk/WPt4djxKxCa1bf3a2vBNul02EM+2tfUiA3CN9VLtdF91RSDaF/acILQ/DxT0nBAEazqdz5CqfMlqchM29l6cqPCxyyiSrtcyjILeASPrFELH3x48GjvrPJxJED7PQ/e2ck3MIDXON93qZLaRdv0lP2ITOrhdqQ/afr4IrKL00KrFn4W8gIcAm+XX4uBXbfYMISYbIW7smzZmqjC/U+l7VybFfVhyHbhE1RdiGmAEMQFr7Djk3OxIAahH9CRsFobjMiRs4ZLCpnt3vb6KhNggCyVaXYLjnFp8e16LboeRmeqThfMNZuFPRfJWsmjjr0ABD9uw1IBD8+NATMkw8R7UCR0m6kxBE3/KhAys4fkpDDy/xPaNVwdXeaimjbl9rmSzfu5DCM+9KHWGW772BVMlwyu1wiOWyaP6PGofuX4e8ZBnsAqokY+laQCV/eab3XdeY/atDaFh0DR/jr4AyxUkm6ajtmhBzFiA6ojImuafOsYwCLQhzS19KlyKoOQT5FiX8kBnMf6m6MTYRQafzu87UT+3pxI68F+sGoEBdrS0uyEvlB+qKgq296V+BjzACTdv+sIVgi/AnHUSafSXZ9Itya/EDbcMimq8bv5ZorKYrq9E3t2PWQflHsT09RcCOdZLI8UmE9sGyan5nlRmEwclRwJCIAUTd8Z+3OemEOIQQttvqu4xltNPuO1mgOwLflxqcbQzKrL7xxEwQGSRuPOfExyXjPO1VD5jRNpIcXYVxbpPkUCPVAIoRcnfoVRyZAbRJq0W677LlXk37HgKAXCHmDXxMfwBum0yPGMzzZqzHD6AraWjJg0/tEKQuPQPiigh8HhxpMWo8jgl9l0jFdglvxWr0D069Fy30jkAWebvyFDaPnZkWPQoTyvedAWAokMFF371kxankG6rXQJhlY3ZW3p4QYftaIV+HUrVxqWTmaLnK8Kt3daWTYXieKg/nA3x5bKajpVqCgQV4CISopkNxAvFiUCKP7JJhgv8GC1z54lTENNoCbitCAjyXF+lTf0cOwiU05+erormkqM4eyhW3lNxECAk5YJcGhdbPGYyPs+sTc7T6co6U+aUFIitEOHE3TmN+F1Z5HumwMY0rQ+8zB9oBvZX572MpV4MhQ/KFqr2f/FuIgLZm6g9ij3x1P4nUQVYm4M0Df5JEkMLnevVBkqp38pEzt4LPeVwKeIVV8KioQ/hrU06yV6cAwj/kooH9421hD/6a8uY908J8zXNrvJ2WviqDn7buvO8wkMEomRcz933Z2S9ZnlOq00t8D9k2J40sC5Vx6NZ7HuNhRTXw7OLt2H5aSE+nAwAZmO8zD7FldH1rLZBUNixvMqpIchfN5jh7n56mpZJhW0CsQ2tzr/d/WXHS18pQ0mDbVQvb8ipGQynYCDVRCaamYhyPED51YOErTkVURUX3B8YvM7kCnhAqV3mFELlRq9Snqd4wMtlaVK19rfW/PtVqUY3OYvRHEukUUA3+0n6S+IfYHjAFGX8qjifo3k7fiIgOJ+1c0Il7LfxisWLl2oLy/tWUcJdbiCNTJPmqyobHHj+RpWjjASFKBGgPwuU8bu8jsA31J3fqw/q+ijg1+WoljI65NdgVU0Rp6dQQF6i77c9nOz93MQcQe5x91NBc8CcWpIB7LEvDoiydzoW95Gpe2TuwruqkzIhbD0HrDWoGtcLngtuxwqKrE2MLhI7cgnw3h55T55VSgtXSYG///mVvFxlj10LUTmxTspofnyO6cRs0kil89xdaq5/yCwZpz6UKD+gf4IyM54DjhbTez4d/fPH7YpPLRhogOjv1h/dF5i9k/LWaRbDgI2wusCzG4AAACwLdRtgcTtvQfdapcbvVV5NVl30hv5EI3xey8bB3amcU/HzYSZCex04nHemZD+6aoIuO2M8+PMf47OS4PlEKnIuWUv+P6TYPw6ZJnKlZsnp5tCYZ7GatHENpBYDDOhUCaIP1uf73lWrIPVbMy4obOaUiJwHMzq1HLjzDn0qKwUZ0ABLe7jfzV2DIVzuypC578zr4o/3Vok2IJbGiFx4+rF3TBDHKTv4AE7Lr5Udzox3J6BXF9I7G8mxhfnhPiz4hJBcWeYCsKlUuTNcNiA99HFhCiXJhLcXimsu3TTYUjYHGzIa1Bb74hd5dXqAujLx9LVJhFCw+bfrj17dCq5dA5zEH+0MmHj6dJoM/VhX6ZUE6+m9PeQtYwVQp2F20WP3+UJ6rTX2eaLSQVfD8YGBey45LegZR3JJ+md+mTUihdP+Pmk7GqqkFPV2kwUjx9qPAJO45gxgYHKuyLiC37xQyPchUTbVGFV5kNiFQm3CsWyRRIZX9dIQKpKUJ8s0KHz79SukDDh34072fEJYmsiuf4UPa4ve/bnoT0D2z9tjE5t8hPhB65jK8hJfwzFIhs/E7YhH+PwRASp9xnnSwL7zOG/TairvHIF13/Y1TjJIH6XxihWSllN78DDwaYDdCTz6tOHlrHUYB+0ZvMJ9ZRIqmYsIOcb4DC1FSUk6PYoizP0OKasFVjuq5Nm3if0KInsd7pCim6HDgKeANyYnCx4r6BhlceB5b9a+YgukM207wONC7svbCOmvpatDItmqs+CNipIcBDvxaPcwKFZMDZeLHSgR4vzdIpl+Nr7mb54dvwCq5V6pQWTZTouZrs+jzal1zUuU2I5XfjWgWgCzC05CHDFZf7UAn2QCdtqd80c5Evkbi3edW7CcieN7e63pTrNnDfz8pqWRd2COkaSO9IEKZ3Jrm+A/2H56XkBaDj7olEcr9+9qIjiKxaQi/RA0MQUvEiKorGUQbG+A9S9lF8LjXioT6x2bwfH3xAZ8tEwAj7O8aYA40wm77LB5EV/WitQFi9puBrexKkePdjohGeac+MDkTkd01QDjZEoL30vDGK1wiq7OayKIK6ZnEpRglHknsXzuRG6q43HL5EcsYzTWqhNKAMU6sgeS8KwQYT31tCwMsisMUWOc5xHp7cJ0ufJLyTSkoXKME31SjAW7Jaj7QIBtym3zm7QIZgf7qlV79i7Tj+UCyiDxuEuWuc05Fh5ll5fXC50YYCYGIaGPBtGXBs29qZE0XlGKNjaTwMH5Gl4oG4DDrjoKFwqXb7VVRvuYa5cZIE2Kdx6rsc6aXIomGi4P9PGspakODt8VppT/2tbAdXY8csFKyVpcgyYYOox9K/PQOrXg3SLKi3gyndWkNo2g9sa+TGllnB5ySuM/+uJIVqiIsQcCo3P95C1yxbxZEJmHyWXbeOZ9na6KrQsETx0wjZNeNJp5LI/a8X2s02OvgZrN8g+r3D3ULpxK4sVzRpWnd/U0hL4C+1TE+m2bS/j+ThNwgFpdTXwCEruC0PyZRI4+JaDFgz0PaRRKFjXCt/egqf4jBirWusmKqa7yVqW4Q9FiozZh+cxpIdyw3nNZYuo8iAKdps/j+L3ylAfFZG0g2aFmlbUiCoveRtbezMek4k/EolatB7WVZHUvSphzUMvMhwbK68VdJBXlms/GGyl+uL54rH4wT5Js6nEAfFo6ID2oGdwxFDbUGXBz/bR1X0pYtmyBHdwDWcM48MsGDSvdO1zkqgfzemQdeocazFQo1M9ZJzvU3G9JpVmovt00cy47jYTR01eLK4qmXCyFIMluQDIh+AH+CYYGNBtaxGvgwAxkZyqDG0gCGTZSUS3UvfJ25MBVUVEwPeJT7P+LAofdgnQlhIWRlp6E2WCwtqiGvKolkKh+6Abm5ahjp72FksRfBfcU2aBSIWth4EghntK74bloJbsyWkpRPmmMDNQDFDtP0gNJitwjj9I7M6Ctd7gk/pBXOUUwsBJFQBJGi98229YZGqc57lAeV7ZrmO/ISK1Og3PU1QjlK3ejPegv+xHLgFYZhZ+nUgACu9pS4DXtM3wm0/jA9fw7loF2JgHgSBPmnwZPmwh01zcA+K6Ywr2JSgEjfiMgbDstPyvGwMRlYJPXvGjzcUni3eWq/v2R5AvjROmIEit/XtyWtW1ByxhtXLXMpBLia+5GvuXMdiFPBrQAOyt/Jp1gSvsBgYDy+J3CqAegNxxgKC6DmwZhveby3mjDIu9H5CjHyLDUYJpp03CxsXoehBzgCGxVhmVD/NQDKGjY0zP0TIrXZz5B3FnBB4/pTt71BcDnEvLA9NADQC2figWafmhGEmqyiBTnJPPTrWZGVUjW4l6HuUOH+M6SQqNVzHT4bcLgkWDREd01/1no3ohNuRhurHPK6T+Rn/pD3wLF/L3JATC8IVGU4avHyayP8NnEYgKONtk0AgMbZe/msIandusaH1hZpp0u/fTv0EAOFjQt50toD/+NHHyVKKCnPLlZUT2SNSOSZ6VfVtYz7k0vOXrXP0PJMbNV95SzF5O9O2XD7LeVzY0X4KKg5eYrCluP7CN3ixKM6yqdELVVm/M0poNW7LNckTjXjncKMGvrpZG0nfIsWf+4GOy8GO2xjczVSdAXkLiEYGQEpLnEa4u1A7A1y8sOHLCirw1Zs0L1cNej/eJLE1kMyZxUkXRxY4LSOrqnQmTRjbGAxLheawaqRLYkQPUX7zSyK0e0kQutT4OLpNm+xVnTxjS66L+XPn2sRLMaR601HkW1hRUSMAEnx2N9er1OkSo53NGdfr2qcRRM0qPARvmXZUH7UkXCTqEh8rNhMRkZTfcvww8kcXwKcVSWzNepX5dmHxFaAuvHLkVifflffv4Z8ba010UCsYN6uL1LXD7imQ2Ffj80WSZzShR6r7CJiw3Jg3r0SBstMBBrUAMzByChbBMXtWEMbEIdZs+wbbxbq1BZVcC0ikr86SHl8oy2Rfl4kiRfuMSukBrE2zkKeaoD65kvKE3E0x6Kj00xs0HCX+Hubza4m1LOiGXLNWmqMYrbgzNTnuY7dqcMhQ7zrl1NMeF/L8M+otS3wpSTc4tA8UfvLTczdA/A6HO7vmp60EOLD3d0Qh5EYMaJjwAAAANy6gviLs9GNLh+8PU4BwgADqSvNDlQJ+gWa0KKXOCQv6zWa4Gfg+MELm0AqxoJEDcpphq4RJYc+zRUC9x9jjrd1Mj1DvLvsiioUdM59RM8GU7qZujy6snYpnWgwApa0g8zxMK6qFToPCj/gM/jTaM5Oa27k5WvHsCITL9IJ5AeWXvj12xOT9X1BtA3ctUz6e3OKxeG2XC93DTmBiFic9V0Mub16VM8TW/0Y/7ENhVOTtGIO1B+sTNnbu2KVaSviPq1qisF4Gdrvyx5H1W3N9Ydjdwd2AsRSPGP3sHiYQ12fYmhsWMf00Yzd6+E4pB2GMGQ1QHpBKRAhsJOTYBB/lyOTJ4fH+Br9SZjsL5FA+ptPEMWZ7nJVk6U345TCVXBeuPPbZUt8xE+FI6kTNzLSH6VngITENjmbAsRf2XPtiA7OgY+rB6rVHGcXPouJC3HxlWB3aWSICAwtIMOqSCBBXmaqxzzcbLIit94gz3lFa7CPoFxnVk6rboG918OcuCFBfKnIfMshmw9xy7ho48CJMafXLbOiw82s49207kBzWy9pVizKit7vnZR2QfeZo1ykTiY0ZKVjykXgyLVZu4VZYrr7D8UGQe9gNQiSaYQ5XzgBEwzNHaxX5wOPZ5Gq5+Sm5vuMYOh/uIsgK/YA3tQDG8YYDVeJO1LQWzSK3NSsamGLY0pKG5+hX7waE3O5RsaX1KcKounmu/mTI6BHRaXU2bFS/VMTeXp15deZkx3ywtMag1UMssxRBsVgUI3ug7baVR0CrY2iMAaZA/Y72tr6I60Qnm4lq+r9HvNTs7V6WggzzQlXCVk/ZN8CfQBvUc40D3gkAtiVGFpmjRSc34gKyv/XArxXUIExM7IasiNakSIMTQQSXVblCAgbFrw4q7IvUyZdupuRnmCeAKMBv6a2/+KwPUErup7H2hVchS7881AsxkZ85EnxqEltJhp0alkpWPJV1WixSk/cWUQ3dDzQtHisjP6oPNdADeXtqPxb+APKm951GWhSygSiZFCmxdlr3Prud/T+2IHOFvGWp//KQJVm3YPjriruQ72CU3ab+eDKk1N4YztII++FqnoGBDN49pF1ZLrFfzr4npH4Xq41sAnCVm2AQYGtWlZ36/pmsJJeToxjCQvDxMi25RtQSLGAEbipBXi/2L1hyM9urAVEVaHWXNLied+dsPZCEQgo1xwSxf6OXOFFTp4b51aH1sfOQx1RoZDUx8EM3kfm6MtqAjY2r26TqWOI6031oyKiqd9i7EZWqhHN+5+5l9kp6i5Fs+Qw39i2oYiDSrdwzMbohCPbgNyxp/RH66tyQ7eJpahnAdrpXt6mdEOpj4T8NjU22Tp8YH8w57QQv8W03TAfQBZc6ndGmai5/7Z6A3HH2pYxctIAf2Zd5XEIqLwYinzyUAPqNhcoUD3GQMfhcojWmluhKAnb3MS29dUIRhpfD1S6a0Z/PnEc6qqzqKaz1W+KL9d5X09Pui36CQiF5AEMhGX4rctCtIe1ShIO3JYgSiW5gkjujcnd+K/GxD870wkw/lTblGy85vVnDqumUXVmHS9e9ghmOFQd4KjKiyZfAV5oN+oYjGht1i9IGuWJfXZWkjAMd0EuNXcHEUi6RNXrqyk+Zr5exkVfFERVoK34lJnpW0ltOh39+0JRe/U/c7eApfjUg7gP2tkwSDs67zZNe9eJzXDJlOAquNNXSSaH9wBlZBOaHZJMgEN2L+qcoQEOdHsAYZuC7viYyfeT2JSSS+lrARE2VYSsWp0TIqEXtb4eze/eH370648ghrvf1WVFA2U8HTKDc5ol3A5bwGo7kD/2urXCsGHf/b14Iw/nLqSw8K7Jmmy/fpQpbKLNtDl2Nfz6GliLVWbbxpnVvhgTjzvENbztZv8ExbyquQBWJKYLK5ABOZnEYQsWsyT36qeDm/bPlAuPk2FiN+D13omwPIFY6ESrfnJQ3E7uW78by1VhvjbLD52Nrp90MuZQhp5sQZDOCxasxAF6/ynaKgNQL5ZFYbx5v903akzg3A+9QeVWd9gjWKt6Wkhtcq/jEeRYVOSUN3IpjkvzX1ufrwP8H60LXncfACuY32VjWHv1TrRIaDNOwoT/RwHUiTJLnKx5bPhJEjASLc6D6089sDZKnCw1qWk1vQr6QF9hTof1p4UuVHk3Ze9UuCGW5R1NA9EqsFlptq4mkqIOfO/tXI7x3uvk94RxPviXMDNx0XqtY3n3GS9u9/xKc5ZkQaROLoy6sZVinDd1vkZ8JvWdyU9ffiS5nIc0e2anlOAvKcGYn70IYNBEyWJtFn9TM6ELkjVfpGTdHzWJPKWtYYRs+p25AeLR89Fv+u6IarZUy8qHVdMc/Qmo0+sp9+JRWiVF7j/7v1Jqap/wchrIxJHldB35T5VpmjGmgIxHG8qiBZwUrHicCAeZiZwXeMtr2DFY8ukCGTYdLnha8CCqBnmmuvbtXJrttQW+htU9CxCeH6t3CM7fGj4lEIHW9Jwd+yj+4Ymj5re7MkRwOKsFg+aV4S29pwkj0d25b3aYkUGeLlHz6YTCqepZPJLHUZ3W+LAyLSVLFOCJvKVv+WZDHSN7YohpGLWFKz4IBtjey3we2lXI3nObTijugE6zjCl/0z5wxKCgYQpxeaQHsBMvxo3u6sbrsbAA1+qeSEVciDDrkDoFWS+ye21Cuw7sEOa+Ij8IrTHTvp2UI2j4JZlyDIISvdH88OrWMOYYADUE6AU/60TRCcvseENHer+rRe0EFDkMFLfbjqUmo254UbeRpC/53hVy+9h3OBEygPHGRzhhOQjqsN/aDbweyDJZ+FfxII+jb045SDtrQ3I7Gw++rh5Zm6v3u5k7xP9oOuM91Gir8w4lNZBGVbBLlC8CfiGQSwWIEWfiLCpmElbPleqtfd+KudSzPq5J5I3SBOZ33cWDaBeiPL1wl5uXgIhVqr4h9zOhwNiWC31qqz2EbQ6NpJmDLaeVD7X7J9uisZmJ0r+BYKkg/ARl3lYy5gD7ewu97HRcdtXRq4uA1c91m/rJh7HzHIcnjmMCygBu6y841T93P73Y0dHVGF96Vv91EuZRG1lvM5RXOtikv9s1efYWB76CbR3rRyGjhIXxi2tVfjBKGXrSQDm7AEiBwJzImYrqdaAqmfPMxMaDtHf55YNQUGyzqXC2LP4faHdwwzPu28WEb8i4HWgmULn8nVzvrTS+dGjXzM8BPKfoFzF1t4bKkl1xdJnZL2LXwT1rcHkNcWBRmuCIuVUo1m/SXmsDH0tRBkpNzs6al6Ur6dfo6HpPjlRpeoBIR219BEekJHe8fH6dm9JleLAZ8gYCMQyj2HkP21Yeese9p/n5LJGEyTIHJFNn08TZZXDOYGCoOxaP6hTWNuZSLQIfb5MYneV4YEgsTCT7tDic2m+sa0BO3mXxKX64ZG41VGgEcF7nPq3UDOpJBu1KSF/cE57u6OeKS9vj86JYA/gB8S4SBp7AByzAiy8BG9qTcPRZm4qY0jd+HWh3oBOHYaqZwWfU+MYuAS21ibrDdIEigBqX0wdrVnWkBEBrK7yKq2MM2MXPg0w6F22ncpyGkl/6xsApRxX1QNgfX487GRiBlKm73QfBAViuES6FNWtMJW7F8Du/m6UyJ44JhCfOgMswMBRbJnXsgU09bR+VWUI81av/KJfrr4FTM/+5yZZqQ26TZwHVllaQAvxACAGqQyMUkKP+V952c61C9JXSH8VZRmWk0ngmEryku1kYBZj4V7aBL3SXQZRJbEFDBVn4C/DAuSh1hxZ1/m82clxagoGKi6ua73YF13QMscRxj7xbB5dKd8Z0ZdOO1JmGriIKf9qgbDZE9cpA0CPM0G+7EglmEQWtg7Uhhx+od6qRiHI45+0q0qjo80V9xjQE3Mgpz/Bo0feWDdx7K+bVbrabBiyb+h2bEy7AD0subY3B4m0I9gGaJV7Kia1R/rzZLiJ5bcq7XTV0VYICWr69ynyISl7qHxGFWIDiWJDOmy89aIsbsUw+SWq8SX+drSFDf6qtix/cGTiK7ZTCZ97ZyF7OvfPyWgsLMF5GljP3Z9a+jRWtoa0KJSrbRKLwBogu59PaFsdgfbkutEisFPeDC4WS3+O88H9FmPl3uxKZMYdNg9o1MguIrQDTADg1PQdzTMNsixEZHGeIfCQPsfkgid6ITONUZIs95cJXri36es2rNN0Bv8648xOSndE9CB/68aRC0aoCaACySeUwEzLJesMK/xWmWZ/2Cwdiq0OpUozS5G6nwK3Q1kH5+0XeiR7QRa51Vph1nRA9OZfRrFk259nQpDb+bfMZuLUP3Cz46uOXfRJpHGtjw9hpvJ9NE7urR3YVJ1DmaJb2s/7W1xdZstgPSUlnklZX4gcpvYz4rbNkXq5Q9KAwpA4f9/VZs9DveELN+XOL4au/6ZvXxHvpB+Pa26P5SOCn69dRqMhd4PZbd/k6gHgw9YaGd/m7vEvAHaGx6AY95+cTpJX1+sr9ctuD0VilkVSqePp3XOEslLrDPaDU66WsiuquyF36n6io1CEy9LFHVniN3k5jcwMzhxU8zKRa3vxKeR4Xfsxw8+uVjPuQJIczinLMtb8n8QW2zlr3/EmfFTo+zme8sJ8BZV3XnZhqkx7snOKrPwVMcrRjq1Dwh02ltBoX+D6zNyXjPJ6B311+PO0VRqK7jAuDkhyFOwG+aGAR8zbx3eCzkRDIPFX52tzvrsyXqWC/lqRe1YNtzwc4+zWKN4wYY7BJRXJB3XOg6Az5c4Gq2wwYW3u4oZ/QAdUyLuzUR26akxAVzPvKiNmZOGJRjL44h3oz6HQZZCvn2N0OepG5dbSdpeVdov4YqdzhmBkj9ThHXD3mL3rWPNiH9S2xHlVYsGTNNH4etWZsyAVdkmrN2nKE0vJXEmFvpm9LsgM++ERXNmZqb/zSusaoPNNmdEm0hljqjoCwT6p2T650MeyKSl3rf25haxn1XaVHjJ/3bP+bEKgZWPgUkHx2nxDT1JApFyqvURLXC9e9nAdYHJlCnkJl/+Gh/jHVey14jPzXZGoQsS6NMuvRWsLMO5+8lfXYkg2+ceZHBhExmUPTn05agq4TBRmkw3NhlmkMvXW5xN8smL+EYX3QOT2FabG3CW/yGiVPGz/Pv2v5249g/5Zl15wrPzKpr/ZSH+mXBFTJAfILfTR8laN7ttT594dHZvg21N9lH/BAH1tmXzNatdc1Swc0zMU4uxOhEkgL1cjMsl6VN5sZjK+jmTHmq02tHm4xS7gY/m5G22LqFZa0dFN+KzGds/5VnNmkBxy+5XxeDURPT9hg1hWlXmWWodM49o4jm1tCgnWmEcoT1J62TJpll7UOUdevQcTpuL0Z65ts+QGtaveQ24AbF/dWz9Fi3GWA0MJpcxfBPGs6/XiM1yia+GFHE2ARMN9ta15UNZySziC2q3NmaUcEwMFPOZNVtqwzK97ojmi2h2mQriQGhHgTdsy+S1HxOfFJrqVKNYKZWFY8eo4jzZ/nTfZCGsyGUJN6qfc9XXmENXxEFnPXZ10HSLNBUzJrbGC3PepLl9ZCplT8oCBwf4VW7hsziXR11SjWINgy38Nmvqwvx9DSGnU3+lJmTXrDl/1+p+IReL/Z3qP7MDBzJC71yMvWQoIFjBz7m4jfMjmtBl8pDCzayqy1NmUvPgYdx8Ma89APJb/YvFbs4MTBcGfUA89qkHb4IFizpD+h78G9L/58pN7JS9GO5MxgYZKhuTUsRsmmtFO6q5n6RmDRv/2+Lc0CRt2/HRuyg3Dvk9u+w/tyOQF1YtY4wvLErux2METGlF7s3GLFMnZ9/iQkOIE5MhP1cFPfU56zaduCC3mpCDx3UvLSWcAJ+0MB45AeadoIwzARwtYXRQx9yWHOy1Ll0NugqzG3/1dMYxEm4lqIJYrfBXCnls4h08PCcokEz1TjT5JfBL8GuxqO/QHGTNLywYHs4uL/C1C1d0ytNY9QIzpg/3j/lorTj7hc5RI3YpLoqt9qMFRz5uThXDj9UdqezDgUFBA7OySYJZlDtIKhJ3ht8lIxE65Qwd705DmiDKh8t0uWsGpuLrna3WM7jOTwU8/sQuP8ZZ5hDyWO7KDnX2gPoOyddH9PdioFGuYDbdaUuyQQLFDf2YGjAUhEZr1tuMf8N6De3AD+8YpXI4IgwzkNT3hIezR5C6onF+KcdMWC/yXYZUwGh7pxagtPpw3Sb1NKrvk7tSgo+R0Ho+O5t9c8MAlfJ7MgI4354JWIlaGg48jQMCpd/hTJFVshquVQ2KqYo7DwMFOPW2P6iIMnnLf3ckFot7qNWvYyO4lI/ovf0GgxwoKXru2mMKdtt9DiPsSTX6ktN6BoER8UXq3tPJKJXpLBHLETVz6JwUJBVThl3T6YSnqaSORgOtSfiDpXrOPmbWfEJvs4VWctPeczsc4/e1X7ludVqKvhXAM9eD6C43qGLZVE2LtKE8rmeoJsRIvMyp3ieAg+W+/E4G4IHaueNUKWyUHL5YqovDBaZYjAybRyScwdn+N17rd5X/WOe0DdM075qpGbgjAZQJgw8BbEQj1N+94YPmC0KEOeWDefyaVuvBhL68kHqquI0SD6fHt6PHeaCXu6IfsZ6csOSLg2r0Um3uJRabBBOcA9U33OmXc8wNyZ8p5Mo3AWr+zHsSjQmzXIbD8QDs61V8roK55YiotVU9a3SBELABNGxCEEJvAGbPXNJ6uQvI8Om/hG5jxd4Da0i9L4UsgR8gT++4uVt8CnYXB6qwkVnlaKICDVUlCkzZGZGXVfg+HxaJ11VNVeeN4tG4z384dznvs/+H9Fv3SawbYY655WAe1gqBQoOd+Ji8qg8483uIthMEQprglH8r9pHikYZdTHvSKFa8SumszXm373GcXzgs6nWjmatufk+WLVr0e4EYm7Y2Kr5m/5QcPDY9yYmYbHOSPWAaXTTyHDzgKFpu3JkRD4MKZTdJ3LQkjsD0MeUM0MbNln3D4QDrx2afs4SgI9sw2bzagNpGrCr0U03pILV6Tj84Srvoh/LCZ1bXFQLs+KB6L6SILuQB2hxRobgw8MrA/JyhcshF50WOXdzOEOINVL7ttpvsghNB4KgAIo6dURvUOOP/O4Su3VwAOm8YeeOZFceolQfxJsr7p1DRXQlxz8xlnTgP6sMTb+Rg9nBfCQA6Zw5uw0+b14zCSeGwsc4HBrsRJ9OWFhvihFhtoY4O4cpAJZAp0hfY9KNCaqvDOrpVYu1Fg6xj72PdSt30AKXAXGxCO8qz5RN36CcBAMhIPTvri/EYgzEKrXz3yIJdj7R+do6PvG/DgJUU9/8oxDTWVPwkNGzQ6mo/cNsTB50PbmSK5liAHXyZTb9hdVP89rxQforq9fHOpaXYgJkCjcksD+toawGK+cQ72aNDGfbe/fI8rcLYo+PEdXKBGH5HmF4V8cgVjnNetyomFGsCzDqDdDT7w15lnMVxtAiA4is6t+74oWhvzKe2AgOBZBQrowY+HeX1SX4yNwZnGYnXqqtoS6k/V9PBKthzaw3Fqa5//geVnHJMhd/mE6ZUsdXi3/GChySb3M41XZFqHsF7dcZAi1VpHwEgLPD103H+llUBYbYBRQe4SPa2AUXph9mABBin17pYAtkPVlUBZ+YF0IOyoCnsD9rEMuRjlET44emYeBJLL9iJhNP3PtYk3QHGWtj2Y7tvrqF/KY9F97CJwAeRaXNinyvnW5vmSrAAYpqGR03401qtXH4c4XeQq3n7Knj11Phf3Bl7loZa48RhBv/sNszaijHkFGv/gRTh6SINYpSgalApZJADWXs+3MOwxmwJod8EIeGzUGp2PkfOq+THKWxANe6nY3Q0tpaNJWWFbeBT3xgkzrxP5L5SaibVoKG3hmItLdpc2Rt1qRZ+rIuvZ1Fsb1GIHyVxKaIPSADo6GgIFoHuTQ+PTCS9dWwm+Dgn64stbspXnofllkqCta2PJPU8XFWt8RTuhHwFgSMbqJDmylPbsP8Vtxqnd0CiJCozoatfQAP/fuIxt2TKx40yuKY7X9+CBzqW8HUwTbkL0zqxq0hQI4UDtnXf0FYt3Z5c8LGXgrqzARXCQTbKxdM47c+6bi8I4DRvh6NVR/xfjUgyZlhs8xNpUAnp4v0WuX/zUmTF0hTUmcggDBE1FOq63Gyd4+gJse3DXWARXsS+sHZ/uwk7OL8KxDvbFhC0C2A8HsF7mHPSS2LZ6VPwoidCT6gGUOLlJDftI9R5ZRGX+P7x4NdrO1bdAJMQdvms9vGOF6JueBrrciIy6g57apv/JO9zcaet4XOv6DWCdeFmK8JvaOB3/39JAOXWsHs326rMMD2yEDL3FYHh5HSaP4/sPIkTispxZyzFSdm58FxX+Yv9YtfKndMCS7zOGOTfOVoWKsIDVR0R04lX0fTI6iztbwzy1yq53q3GjYnNa8FtLzR7Tn01KeHx0y9OyzgAnukFZu03CujUmCrThVx8+4GzXRB384b19SjL2qEHMxoKp4iSnVDakbwW2rUBlLtz9+W6iQqgpcmPznQaW4Mghz+xiEmSR0NqMtEp4CTl3XqQLdDpQcdYls3DdYQ8Jd9sWHyoVjw+gPNnESRgAj6qHxBt0TTfw4IcM0FvK8x+9qqOQeDV5qHFSE4miHcubjIlUIbyyfo2fa7LfCVj889J3C2t+voy6ueMbRm9LA/hvup2hQcEVB+vYylOb1ukWz9JHNW5nGqu6Yxa+aQiJKEwAAAAAPUq1CjJ3yNACsTKsZEjsQi/mPusMq03KK08N2B+7i0z6RZAG0aig3cA2TeuQyKDdwDZN6+oxkyJkbhuci9WENwSmnscjH14AptXIqAAAAAAAAAAAAAAAAA;fontStyle=1" vertex="1" parent="1">
          <mxGeometry x="46.07" y="600" width="146" height="146" as="geometry" />
        </mxCell>
      </root>
    </mxGraphModel>
  </diagram>
</mxfile>
